<?xml version="1.0" encoding="utf-8"?>
<!-- Generator: Adobe Illustrator 22.1.0, SVG Export Plug-In . SVG Version: 6.00 Build 0)  -->
<svg version="1.1" id="圖層_1" xmlns="http://www.w3.org/2000/svg" xmlns:xlink="http://www.w3.org/1999/xlink" x="0px" y="0px"
	 viewBox="0 0 300 112" style="enable-background:new 0 0 300 112;" xml:space="preserve">
<style type="text/css">
	.st0{fill:none;}
	.st1{fill:#BF0000;}
	.st2{fill:#FFFFFF;}
</style>
<g>
	<path class="st0" d="M317,121.3c0,2.8-2.3,5-5,5H-10.1c-2.8,0-5-2.3-5-5V-8.4c0-2.8,2.3-5,5-5H312c2.8,0,5,2.3,5,5V121.3z"/>
	<g>
		<rect x="1.6" y="3.3" class="st0" width="298.8" height="106.3"/>
		<g>
			<g>
				<g>
					<path class="st1" d="M51.6,28.3c0,13.8-11.2,25-25,25c-13.8,0-25-11.2-25-25c0-13.8,11.2-25,25-25
						C40.4,3.3,51.6,14.5,51.6,28.3z"/>
					<path class="st2" d="M23.3,41.7v-8.3h3.6l6.3,8.3h6.4L32,31.7c2.4-1.7,3.9-4.4,3.9-7.6c0-5.1-4.2-9.3-9.3-9.3h-8.4v26.9H23.3z
						 M23.3,19.9h3.3c2.3,0,4.2,1.9,4.2,4.2c0,2.3-1.9,4.2-4.2,4.2h-3.3V19.9z"/>
				</g>
				<path d="M220.4,40.8c-0.5,1-1.5,2.4-3.6,2.4c-1.3,0-3.9-0.9-3.9-4.3V23.3h12.6v-8.6H213v-9h-8.6v9h-6.1v8.6h6.1v15.5
					c0,8,6.3,12.9,12.4,12.9c6.2,0,10.4-4.2,11.9-8.7L220.4,40.8z"/>
				<path d="M114.8,14.7v1.6c-2.5-1.6-5.3-2.5-8.3-2.5c-9.3,0-16.9,8.5-16.9,18.9c0,10.4,7.6,18.9,16.9,18.9c3,0,5.9-0.9,8.3-2.5
					v1.6h8.6v-36H114.8z M106.5,43.1c-4.6,0-8.3-4.6-8.3-10.3c0-5.7,3.7-10.3,8.3-10.3c4.6,0,8.3,4.6,8.3,10.3
					C114.8,38.5,111,43.1,106.5,43.1z"/>
				<path d="M186.8,14.7v21.2c0,4-3.2,7.2-7.2,7.2c-4,0-7.2-3.2-7.2-7.2V14.7h-8.6v21.2c0,8.7,7.1,15.8,15.8,15.8
					c2.6,0,5-0.6,7.2-1.8v0.9h8.6v-36H186.8z"/>
				<path d="M282.5,13.9c-2.6,0-5,0.6-7.2,1.8v-0.9h-8.6v36h8.6V29.6c0-4,3.2-7.2,7.2-7.2c4,0,7.2,3.2,7.2,7.2v21.2h8.6V29.6
					C298.2,20.9,291.2,13.9,282.5,13.9z"/>
				<path d="M263.3,32.8c0-10.4-7.6-18.9-16.9-18.9c-9.5,0-16.9,8.3-16.9,18.9c0,11.2,9.5,18.9,18.1,18.9c4.3,0,10.2-1.5,14.9-8.1
					l-7.4-4.3c-6.3,7.7-15.1,2.5-16-4l24.1,0C263.2,34.5,263.3,33.6,263.3,32.8z M253.6,27.6h-14.4C240.8,20.6,252,19.2,253.6,27.6z
					"/>
				<polygon points="145.3,31.6 162.2,14.7 150.1,14.7 137,27.8 137,2.8 128.5,2.8 128.5,50.8 137,50.8 137,35.5 152.3,50.8
					164.4,50.8 				"/>
				<path d="M65.1,50.8v-14h6.1l10.5,14h10.7L79.7,33.9c3.9-2.8,6.5-7.4,6.5-12.6c0-8.6-7-15.5-15.5-15.5H56.6v45H65.1z M65.1,14.3
					h5.6c3.8,0,7,3.1,7,7c0,3.9-3.1,7-7,7h-5.6V14.3z"/>
			</g>
			<g>
				<g>
					<path class="st1" d="M67.3,63.5c-1.8,3.1-3.4,5.7-4.9,7.8c0.5,0.6,1.1,1.1,1.5,1.5c1-1.8,1.9-3.5,2.7-5.2l4.6,2v-4.3h3.9
						c0.4-1.3,0.8-2.7,1.1-4l5.6,1.3c-0.3,1-0.6,1.9-0.9,2.7h5.5V70l1.2-1.5c0.3,0.3,0.6,0.5,0.9,0.6c1.6-2.6,2.9-5.2,4.1-7.7l5,2.1
						c-1.8,3.4-3.5,6.3-5.1,8.7c0.4,0.4,0.9,0.7,1.4,1.1c1.4-2.1,2.6-4.1,3.7-6.2l5.2,2.3c-2.1,3.3-4.1,6.3-6,8.9l3.1-1.5
						c1.4,3.2,2.7,6.6,3.7,10.4l-4.4,1.9c-0.2-1-0.5-1.9-0.7-2.7c-3.8,0.7-7.8,1.3-12.2,1.8v0.5H71.3v-1.7l-3.6,1.5
						c-0.1-0.5-0.2-1-0.3-1.5c-3.6,1.1-7.5,2-11.7,2.8l-1.1-5.6c0.8-0.1,1.7-0.2,2.5-0.3c1.4-1.9,2.7-3.8,3.8-5.7c-2-2-4-4-6.1-6.2
						l3.6-4.4c0.1,0.2,0.3,0.3,0.4,0.4c1.4-2.1,2.6-4.3,3.6-6.4L67.3,63.5z M75.2,91.8v-2.3h6.2v2.3h19.9v4.9H86.7
						c1.5,0.9,3.1,1.6,4.9,2.3c3.1,1.3,6.9,2.4,11.2,3.3l-3.3,6.2c-4.4-1.4-8.4-3.2-12.2-5.5c-2.1-1.3-4-2.7-5.8-4.3v10.7h-6.2v-9.7
						c-1.5,1.2-3,2.2-4.6,3.2c-5,2.6-9.2,4.4-12.8,5.5l-2.9-5c3.5-0.8,7.1-2.2,10.9-3.9c1.9-0.9,3.6-1.8,5-2.7H56.3v-4.9H75.2z
						 M65.7,79.8c-0.7,1.1-1.3,2.1-2,2.9c1-0.2,1.8-0.3,2.7-0.5C66.2,81.4,65.9,80.6,65.7,79.8z M71.3,71c-1.7,2.8-3.2,5.3-4.7,7.6
						l2.7-1.2c0.8,2.3,1.5,4.8,2.1,7.4V71z M81,74.7v-4.1h-4.4v4.1H81z M81,83.4v-3.7h-4.4v3.7H81z M87.1,82.5
						c1.2-1.5,2.3-2.9,3.4-4.4c-1.4-1.1-2.8-2.2-4.1-3.3v7.8C86.7,82.5,86.9,82.5,87.1,82.5z M96.2,79.2c-0.7,1-1.4,1.9-2,2.8
						c1.1-0.1,2-0.2,3-0.3C96.8,80.8,96.5,80,96.2,79.2z"/>
					<path class="st1" d="M149,63.3v6.1h-17.1c0,5.1-0.1,8.3-0.1,9.7h19.2v6.1h-18.8c1.4,3.1,3.1,5.8,5.2,8.2
						c3.5,4.4,8.6,7.9,15.3,10.5l-3.7,5.8c-5.8-2.8-10.2-5.7-13.2-8.8c-2.5-2.3-4.6-5.3-6.3-8.7c-1,2.3-2.2,4.4-3.8,6.2
						c-4.1,4.6-9.7,8-16.8,10.5l-2.7-5.8c6.5-2.3,11.4-5.4,14.7-9.4c1.9-2.3,3.2-5.2,3.9-8.5h-17.4v-6.1h18.1c0-0.4,0.1-0.8,0.1-1.2
						c0.1-0.2,0.2-3.1,0.2-8.5h-16v-6.1H149z"/>
					<path class="st1" d="M169.7,63.1c-1,3.5-2.2,6.8-3.6,10v36h-6V85.1c-0.9,1.5-1.8,2.8-2.7,4l-3.1-6c4.4-6.8,7.5-14,9.5-21.6
						L169.7,63.1z M202.9,69.8v5.6h-33.8v-5.6H202.9z M200.4,109.4h-6.1v-1.7h-17v1.7h-6V91.6h29.1V109.4z M199.6,77.2v5.4h-27.8
						v-5.4H199.6z M199.6,84.3v5.4h-27.8v-5.4H199.6z M199.2,62.5v5.6h-25.5v-5.6H199.2z M194.4,102.1v-5h-17v5H194.4z"/>
					<path class="st1" d="M249.6,63.3v37.2c0,5.4-2.4,8.1-7.1,8.1c-1.3,0-2.9-0.1-4.6-0.2l-1.5-6.9c1.8,0.6,3.4,0.9,5,0.9
						c1.2,0,1.9-1.4,1.9-4.1v-4.8h-10.8v14.5h-6.2V93.4h-11.5c-0.3,1.8-0.6,3.6-1,5.3c-0.8,3.5-2.1,6.9-3.9,10.5l-5.6-3.3
						c1.9-4.4,3.2-8.2,3.9-11.5c0.7-3.9,1.1-7.9,1.1-12V63.3h2.9H249.6z M226.3,87.4v-6.3h-11v4.4c0,0.7-0.1,1.3-0.1,1.9H226.3z
						 M226.3,75.1v-5.8h-11v5.8H226.3z M232.5,75.1h10.8v-5.8h-10.8V75.1z M232.5,87.4h10.8v-6.3h-10.8V87.4z"/>
					<path class="st1" d="M276.7,61.4v5.8h19.9v5.8h-19.9v5.6h23.6v5.8h-23.4v2.1c6.6,4.1,12.3,8.1,17,12.1L290,104
						c-4.4-3.9-8.7-7.5-13.1-10.6v15.8h-6.1V84.5h-17.4v-5.8h17.2V61.4H276.7z"/>
				</g>
			</g>
		</g>
	</g>
</g>
</svg>
