<?xml version="1.0" encoding="utf-8"?>
<!-- Generator: Adobe Illustrator 22.1.0, SVG Export Plug-In . SVG Version: 6.00 Build 0)  -->
<svg version="1.1" id="Logos" xmlns="http://www.w3.org/2000/svg" xmlns:xlink="http://www.w3.org/1999/xlink" x="0px" y="0px"
	 viewBox="0 0 400.2 56.7" style="enable-background:new 0 0 400.2 56.7;" xml:space="preserve">
<style type="text/css">
	.st0{fill:none;}
	.st1{fill:#BF0000;}
	.st2{fill:#FFFFFF;}
</style>
<g>
	<path class="st0" d="M400.2,53.3c0,1.9-1.5,3.4-3.4,3.4H4.7c-1.9,0-3.4-1.5-3.4-3.4V3.4C1.3,1.5,2.8,0,4.7,0h392.1
		c1.9,0,3.4,1.5,3.4,3.4V53.3z"/>
	<g>
		<rect x="12.6" y="11.3" class="st0" width="376.2" height="34"/>
		<g>
			<g>
				<g>
					<path class="st1" d="M46.6,28.4c0,9.4-7.6,17-17,17c-9.4,0-17-7.6-17-17c0-9.4,7.6-17,17-17C39,11.3,46.6,19,46.6,28.4z"/>
					<path class="st2" d="M27.4,37.5v-5.7h2.5l4.3,5.7h4.3l-5.1-6.8c1.6-1.1,2.7-3,2.7-5.1c0-3.5-2.8-6.3-6.3-6.3h-5.7v18.3H27.4z
						 M27.4,22.7h2.3c1.6,0,2.8,1.3,2.8,2.8c0,1.6-1.3,2.8-2.8,2.8h-2.3V22.7z"/>
				</g>
				<path d="M161.5,36.8c-0.3,0.7-1,1.6-2.4,1.6c-0.9,0-2.6-0.6-2.6-2.9V25h8.6v-5.8h-8.6V13h-5.8v6.1h-4.1V25h4.1v10.6
					c0,5.5,4.3,8.7,8.4,8.7c4.2,0,7.1-2.9,8.1-5.9L161.5,36.8z"/>
				<path d="M89.6,19.1v1.1c-1.7-1.1-3.6-1.7-5.7-1.7c-6.3,0-11.5,5.8-11.5,12.9c0,7.1,5.1,12.9,11.5,12.9c2.1,0,4-0.6,5.7-1.7v1.1
					h5.8V19.1H89.6z M84,38.4c-3.1,0-5.7-3.2-5.7-7c0-3.9,2.5-7,5.7-7c3.1,0,5.7,3.2,5.7,7C89.6,35.3,87.1,38.4,84,38.4z"/>
				<path d="M138.6,19.1v14.4c0,2.7-2.2,4.9-4.9,4.9c-2.7,0-4.9-2.2-4.9-4.9V19.1H123v14.4c0,5.9,4.8,10.7,10.7,10.7
					c1.8,0,3.4-0.4,4.9-1.2v0.6h5.8V19.1H138.6z"/>
				<path d="M203.7,18.5c-1.8,0-3.4,0.4-4.9,1.2v-0.6H193v24.5h5.8V29.3c0-2.7,2.2-4.9,4.9-4.9c2.7,0,4.9,2.2,4.9,4.9v14.4h5.8V29.3
					C214.4,23.4,209.6,18.5,203.7,18.5z"/>
				<path d="M190.6,31.4c0-7.1-5.2-12.9-11.5-12.9c-6.4,0-11.5,5.7-11.5,12.9c0,7.6,6.5,12.9,12.3,12.9c2.9,0,6.9-1,10.1-5.5
					l-5.1-2.9c-4.3,5.2-10.3,1.7-10.9-2.8l16.4,0C190.6,32.5,190.6,32,190.6,31.4z M184.1,27.9h-9.8C175.3,23.1,183,22.2,184.1,27.9
					z"/>
				<polygon points="110.4,30.6 121.8,19.1 113.6,19.1 104.7,28 104.7,11 98.9,11 98.9,43.7 104.7,43.7 104.7,33.3 115.1,43.7
					123.4,43.7 				"/>
				<path d="M55.9,43.7v-9.5H60l7.1,9.5h7.3l-8.6-11.5c2.7-1.9,4.4-5.1,4.4-8.6c0-5.8-4.7-10.6-10.6-10.6H50v30.6H55.9z M55.9,18.9
					h3.8c2.6,0,4.7,2.1,4.7,4.7c0,2.6-2.1,4.7-4.7,4.7h-3.8V18.9z"/>
			</g>
			<g>
				<g>
					<g>
						<path class="st1" d="M230.4,13.3c-1.2,2.1-2.3,3.9-3.3,5.3c0.4,0.4,0.7,0.8,1,1c0.7-1.2,1.3-2.4,1.8-3.5l3.1,1.4v-2.9h2.6
							c0.3-0.9,0.5-1.8,0.8-2.7l3.8,0.9c-0.2,0.7-0.4,1.3-0.6,1.8h3.7v3.1l0.8-1c0.2,0.2,0.4,0.3,0.6,0.4c1.1-1.7,2-3.5,2.8-5.2
							l3.4,1.4c-1.2,2.3-2.4,4.3-3.5,5.9c0.3,0.3,0.6,0.5,0.9,0.7c0.9-1.4,1.8-2.8,2.5-4.2l3.5,1.6c-1.4,2.2-2.8,4.3-4.1,6.1l2.1-1
							c1,2.2,1.8,4.5,2.5,7.1l-3,1.3c-0.1-0.7-0.3-1.3-0.5-1.8c-2.6,0.5-5.3,0.9-8.3,1.2v0.3H233v-1.2l-2.4,1
							c-0.1-0.4-0.1-0.7-0.2-1c-2.5,0.7-5.1,1.4-8,1.9l-0.7-3.8c0.6-0.1,1.2-0.1,1.7-0.2c0.9-1.3,1.8-2.6,2.6-3.9
							c-1.4-1.4-2.7-2.7-4.2-4.2l2.4-3c0.1,0.1,0.2,0.2,0.3,0.3c0.9-1.4,1.7-2.9,2.4-4.4L230.4,13.3z M235.7,32.5v-1.6h4.2v1.6h13.6
							v3.4h-9.9c1,0.6,2.1,1.1,3.3,1.6c2.1,0.9,4.7,1.7,7.6,2.2l-2.3,4.2c-3-0.9-5.7-2.2-8.3-3.8c-1.4-0.9-2.7-1.8-4-2.9v7.3h-4.2
							v-6.6c-1,0.8-2.1,1.5-3.1,2.2c-3.4,1.8-6.3,3-8.7,3.7l-2-3.4c2.3-0.6,4.8-1.5,7.4-2.7c1.3-0.6,2.4-1.2,3.4-1.8h-9.8v-3.4
							H235.7z M229.2,24.3c-0.5,0.7-0.9,1.4-1.3,2c0.7-0.1,1.2-0.2,1.8-0.3C229.6,25.4,229.4,24.9,229.2,24.3z M233,18.3
							c-1.2,1.9-2.2,3.6-3.2,5.2l1.8-0.8c0.5,1.6,1,3.3,1.4,5V18.3z M239.6,20.9v-2.8h-3v2.8H239.6z M239.6,26.8v-2.5h-3v2.5H239.6z
							 M243.8,26.2c0.8-1,1.6-2,2.3-3c-0.9-0.8-1.9-1.5-2.8-2.3v5.3C243.5,26.2,243.7,26.2,243.8,26.2z M250,23.9
							c-0.5,0.7-0.9,1.3-1.4,1.9c0.7,0,1.4-0.1,2-0.2C250.4,25,250.2,24.5,250,23.9z"/>
						<path class="st1" d="M285.9,13.1v4.1h-11.6c0,3.5,0,5.7-0.1,6.6h13.1V28h-12.8c0.9,2.1,2.1,4,3.5,5.6c2.4,3,5.9,5.3,10.4,7.1
							l-2.5,4c-3.9-1.9-6.9-3.9-9-6c-1.7-1.6-3.1-3.6-4.3-5.9c-0.7,1.6-1.5,3-2.6,4.2c-2.8,3.1-6.6,5.5-11.4,7.1l-1.8-3.9
							c4.4-1.6,7.7-3.7,10-6.4c1.3-1.6,2.2-3.5,2.7-5.8h-11.8v-4.1h12.3c0-0.3,0-0.5,0-0.8c0.1-0.1,0.1-2.1,0.1-5.8h-10.9v-4.1
							H285.9z"/>
						<path class="st1" d="M300,13c-0.7,2.3-1.5,4.6-2.4,6.8v24.5h-4.1V27.9c-0.6,1-1.2,1.9-1.8,2.7l-2.1-4.1
							c3-4.6,5.1-9.5,6.5-14.7L300,13z M322.6,17.5v3.8h-23v-3.8H322.6z M320.9,44.5h-4.1v-1.2h-11.6v1.2h-4.1V32.3h19.8V44.5z
							 M320.3,22.6v3.7h-18.9v-3.7H320.3z M320.3,27.4v3.7h-18.9v-3.7H320.3z M320,12.6v3.8h-17.3v-3.8H320z M316.8,39.5v-3.4h-11.6
							v3.4H316.8z"/>
						<path class="st1" d="M354.3,13.1v25.3c0,3.6-1.6,5.5-4.8,5.5c-0.9,0-2-0.1-3.1-0.1l-1-4.7c1.2,0.4,2.3,0.6,3.4,0.6
							c0.8,0,1.3-0.9,1.3-2.8v-3.3h-7.3v9.9h-4.2v-9.9h-7.8c-0.2,1.2-0.4,2.5-0.7,3.6c-0.5,2.3-1.4,4.7-2.7,7.1l-3.8-2.3
							c1.3-3,2.2-5.6,2.6-7.8c0.5-2.7,0.8-5.4,0.8-8.1v-13h2H354.3z M338.5,29.5v-4.3H331v3c0,0.5,0,0.9,0,1.3H338.5z M338.5,21.2
							v-3.9H331v3.9H338.5z M342.7,21.2h7.3v-3.9h-7.3V21.2z M342.7,29.5h7.3v-4.3h-7.3V29.5z"/>
						<path class="st1" d="M372.7,11.8v4h13.5v3.9h-13.5v3.8h16.1v3.9h-15.9v1.4c4.5,2.8,8.3,5.5,11.6,8.2l-2.7,3.7
							c-3-2.7-5.9-5.1-8.9-7.2v10.7h-4.1V27.5h-11.9v-3.9h11.7V11.8H372.7z"/>
					</g>
				</g>
			</g>
		</g>
	</g>
</g>
</svg>
