<svg id="_2" data-name="2" xmlns="http://www.w3.org/2000/svg" width="257" height="55" viewBox="0 0 257 55">
  <metadata><?xpacket begin="﻿" id="W5M0MpCehiHzreSzNTczkc9d"?>
<x:xmpmeta xmlns:x="adobe:ns:meta/" x:xmptk="Adobe XMP Core 5.6-c142 79.160924, 2017/07/13-01:06:39        ">
   <rdf:RDF xmlns:rdf="http://www.w3.org/1999/02/22-rdf-syntax-ns#">
      <rdf:Description rdf:about=""/>
   </rdf:RDF>
</x:xmpmeta>





















<?xpacket end="w"?></metadata>
<defs>
    <style>
      .cls-1 {
        fill: #816f58;
        opacity: 0.9;
      }

      .cls-2 {
        fill: #fff;
      }

      .cls-2, .cls-3 {
        fill-rule: evenodd;
      }

      .cls-3 {
        fill: none;
        stroke: #fff;
        stroke-width: 2px;
      }
    </style>
  </defs>
  <rect id="矩形_13_拷貝_3" data-name="矩形 13 拷貝 3" class="cls-1" width="257" height="55"/>
  <path id="STEP_拷貝" data-name="STEP 拷貝" class="cls-2" d="M85.226,9.964a2.823,2.823,0,0,0-2.154-.86,2.091,2.091,0,0,0-.748,4.11,11.994,11.994,0,0,1,1.336.59,1.53,1.53,0,0,1,.977,1.37,1.434,1.434,0,0,1-1.615,1.28,2.389,2.389,0,0,1-1.885-.97l-0.658.6a3.135,3.135,0,0,0,2.533,1.21c1.566,0,2.583-.83,2.583-2.13a2.059,2.059,0,0,0-.867-1.72,6.4,6.4,0,0,0-1.915-.93,1.332,1.332,0,0,1-1.167-1.33,1.229,1.229,0,0,1,1.426-1.24,2.287,2.287,0,0,1,1.586.67Zm7.788,0.1v-0.8H87.63v0.8h2.244v7.07h0.9v-7.07h2.244Zm6.851,0.04V9.264H95.578v7.871h4.378v-0.84h-3.48v-2.83h3.081v-0.84H96.475V10.1h3.391Zm3.69,3.05V10.1H105.2a1.45,1.45,0,0,1,1.506,1.52,1.463,1.463,0,0,1-1.506,1.53h-1.645Zm-0.9-3.89v7.871h0.9v-3.14h1.7a2.291,2.291,0,0,0,2.4-2.37,2.283,2.283,0,0,0-2.4-2.36h-2.6Z"/>
  <path id="_02" data-name="02" class="cls-2" d="M85.317,19.947c-5.245,0-8.131,4.544-8.131,12.791,0,8.185,2.886,12.7,8.1,12.7s8.1-4.513,8.1-12.7S90.5,19.947,85.317,19.947Zm-0.062,2.676c3.352,0,5.151,3.486,5.151,10.083,0,6.536-1.8,10.052-5.089,10.052-3.383,0-5.151-3.486-5.151-10.052C80.166,26.171,81.966,22.623,85.255,22.623ZM96.516,44.937h15.7V42.323H99.588c0.931-2.334,2.886-4.668,5.865-6.94l1.056-.809c4-3.081,5.306-4.948,5.306-7.718,0-4.2-2.917-6.94-7.324-6.94a7.787,7.787,0,0,0-7.447,4.731l2.2,1.494c1.3-2.49,2.886-3.61,5.182-3.61a4.144,4.144,0,0,1,4.407,4.295,5.037,5.037,0,0,1-1.3,3.361,15.221,15.221,0,0,1-2.824,2.49l-1.086.84c-3.818,3.05-6.145,5.882-7.107,8.807v2.614Z"/>
  <path id="出示樂天信用卡及_當日機票或登機證" data-name="出示樂天信用卡及 當日機票或登機證" class="cls-2" d="M121.021,14.848H125.9v5.125h-3.8v-4h-1.823v6.578H122.1V21.739h9.4v0.75h1.823V15.973h-1.823v4h-3.8V14.848h4.877V9.176h-1.807v4h-3.07V8.1H125.9v5.078h-3.07V9.114h-1.807v5.734Zm16.336-4.422h11.358V8.661H137.357v1.766Zm-1.106,4.063h5.92v5.25q0,0.875-.452.875a5.354,5.354,0,0,1-1.807-.328l0.327,2a5.3,5.3,0,0,0,1.48.2,2.494,2.494,0,0,0,1.823-.531,2.639,2.639,0,0,0,.483-1.922V14.489h5.8V12.723h-13.57v1.766Zm-0.39,5.734,1.574,1.375a22.667,22.667,0,0,0,2.975-5.312l-1.6-.984a21.915,21.915,0,0,1-2.945,4.922h0Zm9.551-4a27.778,27.778,0,0,0,1.667,3.25,13.064,13.064,0,0,0,1.558,2.125l1.636-1.312a10.588,10.588,0,0,1-1.589-2,20.237,20.237,0,0,1-1.6-2.984Zm7.906-6.187-0.109-.109-1.075,1.313q0.951,0.938,1.839,1.859-0.531.844-1.153,1.719-0.343.047-.748,0.094l0.327,1.7q1.886-.359,3.521-0.828,0.032,0.2.078,0.437l1.075-.437v0.5h4.534V16.145q1.963-.219,3.661-0.547,0.109,0.391.2,0.828l1.309-.563a19.161,19.161,0,0,0-1.107-3.141l-0.934.453q0.871-1.219,1.807-2.687L164.988,9.8q-0.5.906-1.122,1.859-0.2-.156-0.42-0.328,0.715-1.093,1.542-2.609L163.477,8.1a20.353,20.353,0,0,1-1.231,2.328,1.96,1.96,0,0,1-.265-0.2l-0.374.469V9.3h-1.636a6.772,6.772,0,0,0,.265-0.812L158.569,8.1a9.191,9.191,0,0,1-.343,1.2h-1.153v1.281L155.7,9.973q-0.373.766-.826,1.563l-0.451-.453q0.684-.984,1.464-2.359l-1.5-.625a16.272,16.272,0,0,1-1.075,1.938h0Zm10.626,4.234q0.3-.39.608-0.828c0.093,0.24.187,0.49,0.28,0.75q-0.4.047-.888,0.078h0ZM161.607,12.1q0.622,0.5,1.246,1.016-0.452.656-1.012,1.328a1.451,1.451,0,0,1-.234.016V12.1Zm-5.173.813-0.81.359q0.671-1.047,1.434-2.281v4.156a21.141,21.141,0,0,0-.624-2.234h0ZM154.8,14.52q0.3-.406.593-0.875c0.072,0.219.14,0.464,0.2,0.734l-0.795.141h0Zm3.88-.922h1.309v1.125h-1.309V13.6Zm0-2.75h1.309V12.1h-1.309v-1.25Zm-6.092,7.875h4.331a11,11,0,0,1-1.5.813,18.309,18.309,0,0,1-3.288,1.188l0.888,1.5a20.07,20.07,0,0,0,3.833-1.641,13.841,13.841,0,0,0,1.387-.969v2.938h1.869V19.333a12.17,12.17,0,0,0,1.761,1.3,15.98,15.98,0,0,0,3.661,1.656l1.013-1.859a18.579,18.579,0,0,1-3.365-1,11.854,11.854,0,0,1-1.465-.7h4.378V17.239h-5.983V16.551h-1.869v0.688h-5.656v1.484Zm17.13-8.234h4.8q0,2.438-.047,2.563,0,0.188-.015.359h-5.422v1.828h5.219a5.833,5.833,0,0,1-1.184,2.563,9.863,9.863,0,0,1-4.394,2.813l0.811,1.75a11.683,11.683,0,0,0,5.032-3.156,7.21,7.21,0,0,0,1.137-1.859,9.382,9.382,0,0,0,1.886,2.609,13.989,13.989,0,0,0,3.972,2.656l1.122-1.766a10.775,10.775,0,0,1-4.6-3.141,9.575,9.575,0,0,1-1.558-2.469h5.656V13.411h-5.781q0.031-.625.032-2.922h5.125V8.661H169.716v1.828Zm14.793,4.125,0.92,1.813a14.319,14.319,0,0,0,.825-1.2v7.266h1.792V11.645a28.425,28.425,0,0,0,1.075-3.031l-1.76-.516a22.245,22.245,0,0,1-2.852,6.516h0Zm5.8-4.516h7.65V8.426h-7.65V10.1Zm-1.371,2.188h10.158V10.614H188.934v1.672Zm0.81,2.188h8.336V12.848h-8.336v1.625Zm0,2.141h8.336V14.989h-8.336v1.625Zm-0.124.563v5.375h1.791V22.036h5.111v0.516h1.823V17.176H189.62Zm1.791,1.672h5.111v1.516h-5.111V18.848ZM202.652,8.661v5.766a19.1,19.1,0,0,1-.343,3.594,16.437,16.437,0,0,1-1.168,3.453l1.683,1.016a13.735,13.735,0,0,0,1.184-3.156q0.171-.781.28-1.594h3.459V22.1h1.87V17.739h3.24v1.438q0,1.25-.561,1.25a4.724,4.724,0,0,1-1.5-.266l0.452,2.063q0.779,0.062,1.371.063,2.118,0,2.118-2.422V8.661h-12.09Zm1.792,6.688V14.036h3.3v1.891h-3.319c0.011-.177.016-0.37,0.016-0.578h0Zm8.413-1.312v1.891h-3.24V14.036h3.24Zm-8.413-3.547h3.3v1.734h-3.3V10.489Zm8.413,0v1.734h-3.24V10.489h3.24Zm9.668,2.813h-5.173v1.75h5.235v7.438h1.823v-4.75a39.508,39.508,0,0,1,3.926,3.172L229.52,19.3a44.933,44.933,0,0,0-5.11-3.625V15.051h7.042V13.3h-7.1V11.6h5.983V9.864h-5.983V8.1h-1.822v5.2Zm22.4,1.422a9.492,9.492,0,0,1-2.4,3c-0.052.042-.114,0.089-0.187,0.141a3.387,3.387,0,0,1-.327-0.266,23.57,23.57,0,0,1-3.1-2.875h6.014Zm-8.414,6.187,0.92,1.7a23.323,23.323,0,0,0,4.892-2.406,24.153,24.153,0,0,0,4.845,2.406l0.92-1.828A20.816,20.816,0,0,1,244,18.942a11.413,11.413,0,0,0,3.038-4.156V12.911H243.8a19.324,19.324,0,0,0,1.994-4.25H234.638v1.766h2.01a26.064,26.064,0,0,1-.982,7.016,9.32,9.32,0,0,1-2.462,3.609l1.5,1.234a10.485,10.485,0,0,0,2.649-3.922,12.93,12.93,0,0,0,.53-2.016,22.127,22.127,0,0,0,2.773,2.688,23.478,23.478,0,0,1-4.145,1.875h0Zm1.792-8q0.109-1.125.172-2.484h4.767a17.5,17.5,0,0,1-1.433,2.484H238.3ZM125.835,33.973h-1.262a11.657,11.657,0,0,0-1.23-1.547l-1.434.922c0.187,0.209.359,0.417,0.514,0.625h-2.648v3.7h1.807V35.6h10.361v2.078h1.792v-3.7H130.93a10.2,10.2,0,0,0,.686-0.984l-1.87-.562a10.614,10.614,0,0,1-.826,1.547h-1.293V32.036h-1.792v1.938Zm-3.567,5.563h8.725v-3.5h-8.725v3.5Zm1.76-2h5.235v0.5h-5.235v-0.5Zm-3.069,2.438v6.516h1.76v-0.25h8.149v0.25h1.76V39.973H120.959Zm1.76,3.938h3.116v0.7h-3.116v-0.7Zm4.846,0h3.3v0.7h-3.3v-0.7ZM122.719,41.6h3.116v0.688h-3.116V41.6Zm8.149,0v0.688h-3.3V41.6h3.3Zm6.629-8.75V46.489h1.932v-0.75h7.214v0.75h1.931V32.848H137.5Zm1.932,7.25h7.214v3.766h-7.214V40.1Zm0-5.375h7.214v3.5h-7.214v-3.5Zm12.845,1.7h1.309V36.6a20.984,20.984,0,0,1-.607,2.313,16.694,16.694,0,0,1-1,2.688l0.982,1.25a17.96,17.96,0,0,0,.623-1.687v5.391H155.2V39.458q0.357,0.547.747,1.2l0.92-1.3,0.062,0.375a9.75,9.75,0,0,0,3.054-.531c0.02,0.115.041,0.245,0.062,0.391l1.106-.328q0.094,0.516.2,1.016h-4.612V41.8h1.091a9.252,9.252,0,0,1-.359,2.094,5.26,5.26,0,0,1-.9,1.7l1.48,0.953a6.168,6.168,0,0,0,1-2.047q0.078-.266.156-0.594,0.654,0.406,1.293.875l0.919-1.312a19.918,19.918,0,0,0-1.979-1.078c0.011-.187.021-0.385,0.032-0.594h2.259A12.953,12.953,0,0,0,162.5,44a8.335,8.335,0,0,1-2.119,1.109l0.81,1.438a10.286,10.286,0,0,0,2.119-1.141c0.042,0.063.083,0.12,0.125,0.172a1.968,1.968,0,0,0,1.418.906,1.386,1.386,0,0,0,.888-0.3,3.092,3.092,0,0,0,.981-1.766l-1.542-.625a4.306,4.306,0,0,1-.14.8,0.291,0.291,0,0,1-.125.188,0.723,0.723,0,0,1-.436-0.391,8.826,8.826,0,0,0,1.2-1.734l-1.448-.687a6.641,6.641,0,0,1-.546.813,7.789,7.789,0,0,1-.358-0.984h3.225V40.286h-1.262l0.452-.484a6.728,6.728,0,0,0-.966-0.687,2.91,2.91,0,0,0,.623-0.2q0.047,0.219.078,0.438l1.246-.359a11.79,11.79,0,0,0-.747-2.625l-0.639.188q0.467-.906.95-2l-1.371-.625q-0.312.875-.732,1.8a3.414,3.414,0,0,0-.281-0.25q0.561-1.125,1.216-2.75l-1.371-.625a25.871,25.871,0,0,1-.982,2.641c-0.062-.041-0.13-0.083-0.2-0.125l-0.2.391q-0.063-1.344-.062-2.969l-1.668.125q0.017,1.375.078,2.609l-1.215-.547q-0.249.609-.576,1.266c-0.084-.062-0.177-0.125-0.281-0.187q0.607-1.093,1.309-2.578l-1.371-.625a22.034,22.034,0,0,1-1.106,2.531c-0.084-.041-0.172-0.088-0.265-0.141L156.31,35.6a10.819,10.819,0,0,1,1.932,1.219q-0.375.7-.857,1.453-0.327.016-.7,0.016l0.109,0.641a21.071,21.071,0,0,0-1.589-1.641V36.426h0.981V34.848H155.2V32.1h-1.621v2.75h-1.309v1.578Zm10.673,3.859c-0.011-.073-0.026-0.151-0.047-0.234a29.194,29.194,0,0,1-.483-3.984,13.609,13.609,0,0,1,1.2.859q-0.234.516-.514,1.031c-0.146.011-.291,0.016-0.437,0.016l0.25,1.375a10.1,10.1,0,0,0,1.122-.094l-0.561.672a4.52,4.52,0,0,1,.545.359h-1.075Zm-2.384-3.562-0.826.234q0.468-.828.982-1.828,0.078,1.563.249,2.906a12.009,12.009,0,0,0-.405-1.312h0Zm-1.48,1.344c0.145-.229.291-0.479,0.436-0.75q0.094,0.281.187,0.594a5.4,5.4,0,0,1-.623.156h0Zm5.625-.3q0.124-.25.28-0.516c0.041,0.136.083,0.281,0.125,0.438a3.993,3.993,0,0,1-.405.078h0Zm3.886-3.734h4.363v0.578h-3.474v4.234h12.2V34.614h-3.537V34.036h4.347V32.364h-13.9v1.672Zm6.123,0.578V34.036h1.668v0.578h-1.668Zm-3.427,1.672h1.667v0.891H171.29V36.286Zm5.095,0v0.891h-1.668V36.286h1.668Zm3.49,0v0.891h-1.73V36.286h1.73Zm-9.6,4.641H181V39.3H170.277v1.625Zm-1.745,2.188h6.248v0.813q0,0.8-.39.8a3.145,3.145,0,0,1-1.308-.3l0.327,1.859a2.367,2.367,0,0,0,.981.2,2.4,2.4,0,0,0,1.73-.5,2.4,2.4,0,0,0,.452-1.766V43.114h6.06v-1.7h-14.1v1.7Zm-0.125,1.438,0.951,1.672a13.109,13.109,0,0,0,3.49-1.8L171.477,43.3a13.739,13.739,0,0,1-3.07,1.25h0Zm9.224,0a16.218,16.218,0,0,0,1.916,1.094,16.676,16.676,0,0,0,1.777.719l0.981-1.75a15.911,15.911,0,0,1-1.636-.484A11.311,11.311,0,0,1,179,43.411Zm7.439-8.516h7.354a24.959,24.959,0,0,0,.919,5.25c0.115,0.427.244,0.839,0.39,1.234a11.534,11.534,0,0,1-1.792,1.563l-0.2-1.422q-2.774.547-6.871,0.938l0.327,1.875q3.335-.391,6.154-0.984c-0.218.146-.447,0.286-0.685,0.422l0.888,1.641a14.281,14.281,0,0,0,3.007-2.2,7.974,7.974,0,0,0,.888,1.234,2.419,2.419,0,0,0,1.651.906,1.424,1.424,0,0,0,1.044-.437,4.973,4.973,0,0,0,1.184-2.641l-1.792-.687a7.032,7.032,0,0,1-.218,1.453,0.6,0.6,0,0,1-.155.375,1.49,1.49,0,0,1-.842-0.891,6.329,6.329,0,0,1-.436-0.8,21.527,21.527,0,0,0,2.633-5.062l-1.6-.812a20.826,20.826,0,0,1-1.838,3.766q-0.124-.422-0.234-0.875a23.751,23.751,0,0,1-.545-3.844h4.8v-1.75h-1.448l0.7-.875a11.643,11.643,0,0,0-1.932-1.375L195.1,33.411a12.376,12.376,0,0,1,1.137.875H194.2q-0.046-1.062-.046-2.313l-1.917.188q0.015,1.094.062,2.125H185.07v1.75Zm0.5,6h5.905V37.051h-5.905v4.984Zm1.792-3.25h2.321v1.5h-2.321v-1.5Zm14.606-3.326q0.732,0.626,1.355,1.268a11.114,11.114,0,0,1-2.43,1.127l0.576,1.44a8.345,8.345,0,0,0,1.48-.517v4.007h2.306l-1.106.516a6.728,6.728,0,0,1,.7,1.422h-3.443v1.7h13.508v-1.7h-3.755q0.452-.688.9-1.547l-1.4-.391h2.447V38.739q0.405,0.266.825,0.5l1.309-1.562a18.911,18.911,0,0,1-2.353-1.344,11.115,11.115,0,0,0,1.964-1.609L213.434,33.6a9.232,9.232,0,0,1-2.01,1.656q-0.405-.312-0.81-0.672a10.035,10.035,0,0,0,2.243-1.406L211.549,32.1a9.421,9.421,0,0,1-2.244,1.266,5.616,5.616,0,0,1-.608-0.609V32.286h-7v1.625h4.736a10.8,10.8,0,0,1-1.48,1.612,13.563,13.563,0,0,0-1.387-1.174Zm7.478,0.341h-2.321q0.53-.562,1.09-1.25,0.593,0.641,1.231,1.25h0Zm-3.552,1.625H210.8V37.036q0.716,0.59,1.48,1.125h-8.133a14.234,14.234,0,0,0,1.293-.844q0.2-.156.452-0.359v0.469Zm0.81,6.8a7.929,7.929,0,0,0-.779-1.437h4.02a17.63,17.63,0,0,1-.842,1.938h-3.567Zm-1.994-4.359h6.668v1.25h-6.668v-1.25Zm12.658-3.437h1.309V36.6a20.984,20.984,0,0,1-.607,2.313,16.694,16.694,0,0,1-1,2.688l0.982,1.25a17.96,17.96,0,0,0,.623-1.687v5.391H220.3V39.458q0.357,0.547.747,1.2l0.92-1.3,0.062,0.375a9.75,9.75,0,0,0,3.054-.531c0.02,0.115.041,0.245,0.062,0.391l1.106-.328q0.095,0.516.2,1.016h-4.612V41.8h1.091a9.252,9.252,0,0,1-.359,2.094,5.26,5.26,0,0,1-.9,1.7l1.48,0.953a6.168,6.168,0,0,0,1-2.047q0.078-.266.156-0.594,0.654,0.406,1.293.875l0.919-1.312a19.918,19.918,0,0,0-1.979-1.078c0.011-.187.021-0.385,0.032-0.594h2.259a12.953,12.953,0,0,0,.763,2.2,8.335,8.335,0,0,1-2.119,1.109l0.81,1.438a10.286,10.286,0,0,0,2.119-1.141c0.042,0.063.083,0.12,0.125,0.172a1.968,1.968,0,0,0,1.418.906,1.388,1.388,0,0,0,.888-0.3,3.092,3.092,0,0,0,.981-1.766l-1.542-.625a4.306,4.306,0,0,1-.14.8,0.291,0.291,0,0,1-.125.188,0.723,0.723,0,0,1-.436-0.391,8.826,8.826,0,0,0,1.2-1.734l-1.449-.687a6.523,6.523,0,0,1-.545.813,7.789,7.789,0,0,1-.358-0.984h3.225V40.286h-1.262l0.452-.484a6.728,6.728,0,0,0-.966-0.687,2.91,2.91,0,0,0,.623-0.2q0.047,0.219.078,0.438l1.246-.359a11.737,11.737,0,0,0-.748-2.625l-0.638.188q0.467-.906.95-2L230,33.926q-0.312.875-.732,1.8a3.587,3.587,0,0,0-.281-0.25q0.561-1.125,1.216-2.75l-1.372-.625a25.626,25.626,0,0,1-.981,2.641c-0.062-.041-0.13-0.083-0.2-0.125l-0.2.391q-0.063-1.344-.062-2.969l-1.668.125q0.017,1.375.078,2.609l-1.215-.547q-0.249.609-.576,1.266c-0.084-.062-0.177-0.125-0.281-0.187q0.608-1.093,1.309-2.578l-1.371-.625a22.21,22.21,0,0,1-1.106,2.531c-0.084-.041-0.172-0.088-0.265-0.141L221.4,35.6a10.854,10.854,0,0,1,1.932,1.219q-0.375.7-.857,1.453-0.327.016-.7,0.016l0.109,0.641a21.071,21.071,0,0,0-1.589-1.641V36.426h0.981V34.848H220.3V32.1h-1.621v2.75h-1.309v1.578Zm10.673,3.859c-0.011-.073-0.026-0.151-0.047-0.234a29.194,29.194,0,0,1-.483-3.984,13.609,13.609,0,0,1,1.2.859q-0.234.516-.514,1.031c-0.146.011-.291,0.016-0.437,0.016l0.25,1.375a10.1,10.1,0,0,0,1.122-.094l-0.561.672a4.52,4.52,0,0,1,.545.359H228.04Zm-2.384-3.562-0.826.234q0.468-.828.982-1.828,0.078,1.563.249,2.906a12.009,12.009,0,0,0-.405-1.312h0Zm-1.48,1.344c0.145-.229.291-0.479,0.436-0.75q0.095,0.281.187,0.594a5.4,5.4,0,0,1-.623.156h0Zm5.624-.3q0.125-.25.281-0.516c0.041,0.136.083,0.281,0.125,0.438a3.962,3.962,0,0,1-.406.078h0Zm4.386-3.8H238.3V32.286h-4.113v1.688ZM233.5,36.161h5.36V35.333q0.436,0.422.857,0.876a5.571,5.571,0,0,1-1.215.851l0.483,1.383a5.637,5.637,0,0,0,1.807-1.068v0.678H245.4V37.331a13.6,13.6,0,0,0,1.636,1.111l0.935-1.707a8.941,8.941,0,0,1-1.06-.58,14.238,14.238,0,0,0,.935-1.489l-1.5-.862a7.589,7.589,0,0,1-.888,1.379q-0.2-.157-0.421-0.345a13.229,13.229,0,0,0,.935-1.489l-1.495-.862a8.15,8.15,0,0,1-.733,1.175l-0.28-.282V32.364h-3.8v1.563h1.808a6.184,6.184,0,0,1-.577.938,10.4,10.4,0,0,0-.857-0.766l-1.184.828v-0.5H233.5v1.734Zm9.364-1.2a16.682,16.682,0,0,0,1.5,1.469h-2.586a11.3,11.3,0,0,0,1.09-1.469h0Zm-8.8,3.406h4.316v-1.7h-4.316v1.7Zm0,2.188h4.316v-1.7h-4.316v1.7Zm-0.171.563v5.438h1.667V45.926H236.8v0.625h1.7V41.114H233.89Zm1.667,1.625H236.8v1.625h-1.246V42.739Zm4.191,0.172h1.636l-1.091.5a6.139,6.139,0,0,1,.53,1.313h-1.76v1.563H247.4V44.723h-2.134q0.327-.641.654-1.422l-1.356-.391h1.979v-4.25h-6.793v4.25Zm2.867,1.453a9.948,9.948,0,0,0-.7-1.453h2.15a16.886,16.886,0,0,1-.592,1.813h-1.761Zm-1.2-4.141h3.428v1.125h-3.428V40.223Z"/>
  <path id="形狀_6_拷貝_3" data-name="形狀 6 拷貝 3" class="cls-2" d="M63,5h2V51H63V5Z"/>
  <path id="形狀_9" data-name="形狀 9" class="cls-2" d="M46.543,22.388L23.92,29.943a2.807,2.807,0,0,0-1.727,3.528l0.891,2.789,1.162,0.676a3.558,3.558,0,0,1,1.6,2,3.646,3.646,0,0,1-.165,2.652l-0.529,1.133L26.133,45.8a2.72,2.72,0,0,0,3.431,1.805l22.623-7.555a2.808,2.808,0,0,0,1.727-3.528L52.885,33.3l-1.13-.534a3.239,3.239,0,0,1-1.683-1.943,3.334,3.334,0,0,1,.182-2.473l0.637-1.289-0.917-2.871a2.72,2.72,0,0,0-3.431-1.805M48.936,26.9l-0.3.6a5.258,5.258,0,0,0-.288,3.905,5.109,5.109,0,0,0,2.656,3.066l0.406,0.191,0.78,2.443a0.937,0.937,0,0,1-.576,1.176L29,45.83a0.906,0.906,0,0,1-1.144-.6L27.1,42.864l0.212-.454a5.543,5.543,0,0,0,.253-4.045,5.418,5.418,0,0,0-2.437-3.054l-0.543-.316-0.67-2.1a0.935,0.935,0,0,1,.576-1.176l22.623-7.555a0.907,0.907,0,0,1,1.144.6Zm-5.18,4.985L32.583,35.551l-1.439-1.168a0.886,0.886,0,0,0-1.272.153,0.959,0.959,0,0,0,.157,1.315l2.2,1.782L38.7,35.507l-0.6,1.767a0.948,0.948,0,0,0,.556,1.193,0.876,0.876,0,0,0,.584.01,0.911,0.911,0,0,0,.57-0.574L40.865,34.8l3.448-1.132,0.005,0a0.935,0.935,0,0,0,.578-1.171,0.908,0.908,0,0,0-1.14-.609"/>
  <path id="圓角矩形_6" data-name="圓角矩形 6" class="cls-3" d="M10.264,14.312l23.77-7.938A1.9,1.9,0,0,1,36.45,7.605l4.472,14a1.961,1.961,0,0,1-1.24,2.452l-23.77,7.938A1.9,1.9,0,0,1,13.5,30.762l-4.472-14A1.961,1.961,0,0,1,10.264,14.312Z"/>
  <path id="形狀_10" data-name="形狀 10" class="cls-2" d="M15.6,17.695l-0.414.138,0.333,1.043,0.414-.138a0.556,0.556,0,0,0,.351-0.695A0.539,0.539,0,0,0,15.6,17.695Zm-0.67-2.087a3.334,3.334,0,0,0-2.108,4.17,3.229,3.229,0,0,0,4.109,2.092A3.334,3.334,0,0,0,19.036,17.7,3.231,3.231,0,0,0,14.927,15.608ZM17.28,20.15l-1.111-.784-0.449.15,0.333,1.044-0.635.212-1.075-3.365,1.049-.35a1.2,1.2,0,0,1,1.523.775,1.24,1.24,0,0,1-.183,1.108l1.342,0.946Z"/>
  <path id="圓角矩形_5" data-name="圓角矩形 5" class="cls-2" d="M28.2,12.807l5.851-1.954a0.57,0.57,0,0,1,.725.369l0.118,0.368a0.589,0.589,0,0,1-.372.736l-5.851,1.954a0.57,0.57,0,0,1-.725-0.369l-0.118-.368A0.588,0.588,0,0,1,28.2,12.807Z"/>
  <path id="矩形_12" data-name="矩形 12" class="cls-2" d="M12.958,24.011l24.867-8.3,1.295,4.052-24.867,8.3Z"/>
</svg>
