<svg id="sp-step" xmlns="http://www.w3.org/2000/svg" width="257" height="55" viewBox="0 0 257 55">
  <metadata><?xpacket begin="﻿" id="W5M0MpCehiHzreSzNTczkc9d"?>
<x:xmpmeta xmlns:x="adobe:ns:meta/" x:xmptk="Adobe XMP Core 5.6-c142 79.160924, 2017/07/13-01:06:39        ">
   <rdf:RDF xmlns:rdf="http://www.w3.org/1999/02/22-rdf-syntax-ns#">
      <rdf:Description rdf:about=""/>
   </rdf:RDF>
</x:xmpmeta>





















<?xpacket end="w"?></metadata>
<defs>
    <style>
      .cls-1 {
        fill: #816f58;
        opacity: 0.9;
      }

      .cls-2 {
        fill: #fff;
      }

      .cls-2, .cls-3 {
        fill-rule: evenodd;
      }

      .cls-3 {
        fill: none;
        stroke: #fff;
        stroke-width: 2px;
      }
    </style>
  </defs>
  <g id="_3" data-name="3">
    <rect id="矩形_13_拷貝_3" data-name="矩形 13 拷貝 3" class="cls-1" width="257" height="55"/>
    <path id="形狀_6_拷貝_3" data-name="形狀 6 拷貝 3" class="cls-2" d="M63,5h2V51H63V5Z"/>
    <path id="形狀_7" data-name="形狀 7" class="cls-2" d="M38.851,16.328a8.464,8.464,0,1,0-8.463,8.326,8.4,8.4,0,0,0,8.463-8.326m-14.507,0a6.046,6.046,0,1,1,6.045,5.947,6,6,0,0,1-6.045-5.947M33.9,16.346H31.6V14.06H29.18v4.664H33.9V16.346ZM50,33.016H47.577v4.539H45.6V34.287a6.234,6.234,0,0,0-12.467,0v3.268h-1.31L31.859,33.4l-2.418-.019-0.034,4.177H28.072V34.287a6.234,6.234,0,0,0-12.467,0v3.268c-0.928,0-1.639,0-2.181.007V33.016H11.007V46.991h2.418V39.934c0.677,0,1.5,0,2.181,0v0H28.072v0h1.315l-0.056,7.048L31.749,47l0.056-7.067H47.577v7.058H50V33.016ZM25.654,37.56H18.023V34.287a3.816,3.816,0,0,1,7.631,0V37.56Zm17.53,0H35.553V34.287a3.816,3.816,0,0,1,7.631,0v3.268Z"/>
    <path id="STEP_拷貝_2" data-name="STEP 拷貝 2" class="cls-2" d="M85.226,8.964a2.823,2.823,0,0,0-2.154-.86,2.091,2.091,0,0,0-.748,4.11,11.994,11.994,0,0,1,1.336.59,1.53,1.53,0,0,1,.977,1.37,1.434,1.434,0,0,1-1.615,1.28,2.389,2.389,0,0,1-1.885-.97l-0.658.6a3.135,3.135,0,0,0,2.533,1.21c1.566,0,2.583-.83,2.583-2.13a2.059,2.059,0,0,0-.867-1.72,6.4,6.4,0,0,0-1.915-.93,1.332,1.332,0,0,1-1.167-1.33,1.229,1.229,0,0,1,1.426-1.24,2.287,2.287,0,0,1,1.586.67Zm7.788,0.1v-0.8H87.63v0.8h2.244v7.071h0.9V9.064h2.244ZM99.866,9.1V8.264H95.578v7.871h4.378v-0.84h-3.48v-2.83h3.081v-0.84H96.475V9.1h3.391Zm3.69,3.05V9.1H105.2a1.45,1.45,0,0,1,1.506,1.52,1.463,1.463,0,0,1-1.506,1.53h-1.645Zm-0.9-3.89v7.871h0.9v-3.14h1.7a2.291,2.291,0,0,0,2.4-2.37,2.283,2.283,0,0,0-2.4-2.36h-2.6Z"/>
    <path id="_03" data-name="03" class="cls-2" d="M85.317,18.947c-5.245,0-8.131,4.544-8.131,12.791,0,8.185,2.886,12.7,8.1,12.7s8.1-4.513,8.1-12.7S90.5,18.947,85.317,18.947Zm-0.062,2.676c3.352,0,5.151,3.486,5.151,10.083,0,6.536-1.8,10.052-5.089,10.052-3.383,0-5.151-3.486-5.151-10.052C80.166,25.171,81.966,21.623,85.255,21.623Zm15.73,8.278v2.614h1.489c4.252,0,6.921,1.867,6.921,4.824,0,2.676-2.111,4.45-5.307,4.45-2.421,0-4.251-1.151-5.648-3.548l-2.2,1.649a9.2,9.2,0,0,0,8.13,4.544c4.779,0,8.007-2.863,8.007-7.065,0-3.05-2.048-5.166-5.865-6.038,3.382-.778,5.4-2.988,5.4-5.975,0-3.952-3.041-6.536-7.727-6.536A8.039,8.039,0,0,0,96.733,23.3l2.421,1.432c1.241-2.21,2.886-3.3,5.027-3.3,2.886,0,4.748,1.587,4.748,4.046,0,2.739-2.451,4.419-6.393,4.419h-1.551Z"/>
    <path id="立即享受_機場貴賓室服務" data-name="立即享受 機場貴賓室服務" class="cls-2" d="M126.447,10.62h-5.422v1.734h13.04V10.62h-5.624V8.229h-1.994V10.62Zm-3.786,2.859a36.9,36.9,0,0,1,1.371,6.625l2.056-.672a38.625,38.625,0,0,0-1.573-6.516Zm5.686,7.016h-8.008v1.734h14.35V20.495h-4.332a41.047,41.047,0,0,0,2.072-7.375l-1.994-.437a46.212,46.212,0,0,1-2.088,7.812h0Zm8.78-12V20.151q-0.266.047-.577,0.078l0.623,1.875q2.727-.5,5.079-1.141,0.109,0.39.219,0.844l1.822-.766a21.183,21.183,0,0,0-1.511-3.859l-1.667.75q0.327,0.672.623,1.453-1.325.266-2.8,0.5V16.62h4.8V8.495h-6.606Zm1.807,4.938h2.976v1.422h-2.976V13.432Zm0-3.2h2.976v1.5h-2.976v-1.5Zm9.769,8.125c0,0.375-.141.563-0.421,0.563a5.589,5.589,0,0,1-1.246-.172l0.436,1.875q0.685,0.062,1.231.063,1.745,0,1.745-2.062V8.495h-5.983V22.682h1.823V10.229H148.7v8.125Zm10.352-9.438H153.01v1.641h14.163V8.916h-6.248V8.166h-1.87v0.75Zm-4.471,5.828h10.953v-3.7H154.584v3.7Zm1.729-2.187h7.494v0.688h-7.494V12.557Zm-2.29,4.312h8.616a16.2,16.2,0,0,1-1.916.711l-1.34-.093v0.8h-6.5v1.7h6.5v0.172a1.13,1.13,0,0,1-.109.594,0.655,0.655,0,0,1-.343.094,6.256,6.256,0,0,1-1.87-.3l0.327,2a8.991,8.991,0,0,0,1.543.125,2.7,2.7,0,0,0,1.776-.453,1.974,1.974,0,0,0,.483-1.609V19.995H167.3v-1.7h-4.58a22.322,22.322,0,0,0,3.209-1.437V15.245h-11.9V16.87Zm15.759-7.828,0.577,1.7,1.277-.031-1.044.656a8.291,8.291,0,0,1,1.029,1.484h-2.337V16.1h1.869V14.62h10.3V16.1h1.854v-3.25h-2.181a19.546,19.546,0,0,0,1.137-2.234l-1.62-.562q0.918-.109,1.791-0.25l-0.857-1.641a80.329,80.329,0,0,1-11.794.875h0Zm3.755,3.25a10.152,10.152,0,0,0-.966-1.609q1.6-.062,3.1-0.156l-1.215.781a7.474,7.474,0,0,1,1.169,1.547h-3.038Zm4.113-.125a9.187,9.187,0,0,0-1.184-1.687q1.947-.156,3.739-0.359a15.415,15.415,0,0,1-1.246,2.734h-2.477Zm-6.232,5.141h0.966a10.665,10.665,0,0,0,2.446,2.438,22.57,22.57,0,0,1-4.986,1.172l0.951,1.766a20.835,20.835,0,0,0,5.827-1.812,20.522,20.522,0,0,0,5.578,1.922l0.981-1.937a25.346,25.346,0,0,1-4.6-1.141,10.046,10.046,0,0,0,2.664-2.859V15.479h-9.831v1.828Zm7.354,0a9.034,9.034,0,0,1-2.041,1.563,9.05,9.05,0,0,1-2.135-1.562h4.176Zm-58.293,19.25h1.309v0.172a20.762,20.762,0,0,1-.608,2.313,16.611,16.611,0,0,1-1,2.688l0.982,1.25a17.96,17.96,0,0,0,.623-1.687v5.391h1.62V39.588q0.359,0.547.748,1.2l0.92-1.3,0.062,0.375a9.747,9.747,0,0,0,3.054-.531c0.02,0.115.041,0.245,0.062,0.391l1.106-.328q0.093,0.516.2,1.016h-4.612v1.516h1.091a9.252,9.252,0,0,1-.359,2.094,5.261,5.261,0,0,1-.9,1.7l1.48,0.953a6.167,6.167,0,0,0,1-2.047c0.052-.177.1-0.375,0.156-0.594q0.654,0.406,1.293.875l0.919-1.312a19.9,19.9,0,0,0-1.979-1.078q0.016-.281.031-0.594h2.26a12.953,12.953,0,0,0,.763,2.2,8.335,8.335,0,0,1-2.119,1.109l0.81,1.438a10.286,10.286,0,0,0,2.119-1.141c0.042,0.063.083,0.12,0.125,0.172a1.966,1.966,0,0,0,1.418.906,1.388,1.388,0,0,0,.888-0.3,3.092,3.092,0,0,0,.981-1.766l-1.542-.625a4.3,4.3,0,0,1-.14.8,0.3,0.3,0,0,1-.125.188,0.723,0.723,0,0,1-.436-0.391,8.916,8.916,0,0,0,1.2-1.734l-1.449-.687a6.523,6.523,0,0,1-.545.813,7.631,7.631,0,0,1-.358-0.984h3.225V40.417h-1.262l0.452-.484a6.728,6.728,0,0,0-.966-0.687,2.91,2.91,0,0,0,.623-0.2q0.046,0.219.078,0.438l1.246-.359a11.74,11.74,0,0,0-.748-2.625l-0.638.188q0.466-.906.95-2l-1.371-.625q-0.312.875-.732,1.8a3.587,3.587,0,0,0-.281-0.25q0.561-1.125,1.215-2.75l-1.371-.625a25.618,25.618,0,0,1-.981,2.641c-0.062-.041-0.13-0.083-0.2-0.125l-0.2.391q-0.063-1.344-.063-2.969l-1.667.125q0.016,1.375.078,2.609l-1.215-.547q-0.249.609-.576,1.266c-0.084-.062-0.177-0.125-0.281-0.187q0.608-1.093,1.309-2.578l-1.371-.625a22.21,22.21,0,0,1-1.106,2.531c-0.084-.041-0.172-0.088-0.265-0.141l-0.888,1.109a10.854,10.854,0,0,1,1.932,1.219q-0.375.7-.857,1.453-0.327.016-.7,0.016L125,39.057a21.111,21.111,0,0,0-1.59-1.641V36.557h0.982V34.979h-0.982v-2.75h-1.62v2.75h-1.309v1.578Zm10.673,3.859c-0.011-.073-0.026-0.151-0.047-0.234a29.194,29.194,0,0,1-.483-3.984,13.63,13.63,0,0,1,1.2.859q-0.234.516-.514,1.031c-0.146.011-.291,0.016-0.437,0.016l0.25,1.375a10.066,10.066,0,0,0,1.121-.094l-0.56.672a4.532,4.532,0,0,1,.545.359h-1.075Zm-2.384-3.562-0.826.234q0.468-.828.982-1.828,0.078,1.563.249,2.906a12.009,12.009,0,0,0-.405-1.312h0Zm-1.48,1.344c0.145-.229.291-0.479,0.436-0.75q0.094,0.281.187,0.594a5.4,5.4,0,0,1-.623.156h0Zm5.624-.3q0.124-.25.281-0.516c0.041,0.136.083,0.281,0.124,0.438a3.914,3.914,0,0,1-.405.078h0Zm3.763-.531h1.511v4.969q-0.827.219-1.7,0.406l0.639,1.875a30.933,30.933,0,0,0,4.487-1.578l-0.063-.328L142.3,43.37a7.1,7.1,0,0,0,1.636-1.7h0.421a9.7,9.7,0,0,1-1,1.359,11.893,11.893,0,0,1-2.01,1.719l1.184,1.125A10.8,10.8,0,0,0,145,43.557a9.93,9.93,0,0,0,1.184-1.891H146.8a11.705,11.705,0,0,1-1.2,1.969,14.826,14.826,0,0,1-2.2,2.234l1.247,1.172a11.493,11.493,0,0,0,2.15-2.266l0.343,1.641a4.287,4.287,0,0,0,1.075.141,1.893,1.893,0,0,0,1.916-.844q0.5-.766.5-5.547h-5.859a2.25,2.25,0,0,0,.172-0.359h6.076V38.292h-10.1v1.516h2.135a6.772,6.772,0,0,1-.639.969,6.1,6.1,0,0,1-1.06,1.078l-0.078-.422q-0.654.219-1.371,0.438v-4.5h1.574V35.6h-1.574v-3.25h-1.729V35.6h-1.511V37.37Zm12.168,4.3a11.394,11.394,0,0,1-.2,2.906,0.382,0.382,0,0,1-.42.281,7.817,7.817,0,0,1-1.356-.156,6.6,6.6,0,0,0,.374-0.562,12.008,12.008,0,0,0,1.247-2.469h0.358Zm-6.668-3.734h7.977V32.417h-7.977v5.516Zm1.729-2h4.5v0.422h-4.5V35.932Zm0-1.937h4.5v0.5h-4.5v-0.5Zm10.618,2.063h4.736v0.3h-6.372V37.87H167.3V36.354h-6.372v-0.3H165.6v-3.2h-4.674V32.229h-1.667v0.625h-4.736v3.2Zm1.667-1.828h3.069v0.453h-3.069V34.229Zm7.743,0v0.453h-3.007V34.229h3.007Zm-9.675,10.516h2.695q-0.5.109-1.122,0.219-1.23.234-2.82,0.406l0.686,1.484q1.62-.219,2.945-0.516a14.435,14.435,0,0,0,2.352-.672l-0.826-.922h3.958l-0.81.859q1.137,0.359,2.446.641,1.105,0.265,2.29.438l0.857-1.5q-1.122-.094-2.306-0.234-0.764-.094-1.5-0.2h2.7V38.167H154.257v6.578Zm1.7-1.891H164.1v0.453h-8.148V42.854Zm0-1.609H164.1V41.6h-8.148V41.245Zm0-1.641H164.1v0.391h-8.148V39.6Zm19.452-6.687h-6.061v3.016h1.745V34.292h10.485v1.641h1.73V32.917h-5.983v-0.75h-1.916v0.75Zm-3.927,3.141H172.6a19.147,19.147,0,0,1-2.493.563l0.748,1.375a14.967,14.967,0,0,0,3.3-1.2l-0.966-.734h2.01v1.281q-3.038.75-6.107,1.219l0.747,1.438,1.075-.187v4.75h2.322a30.228,30.228,0,0,1-3.521.688l0.872,1.547A24.055,24.055,0,0,0,175.2,45.37l-1-.812h4.518l-1.028.813a21.921,21.921,0,0,0,2.29.813q1.044,0.328,2.15.563l0.92-1.625q-0.982-.125-2.042-0.312-0.639-.11-1.246-0.25h2.1V38.167h-3.879q1.854-.516,3.583-1.125l-0.747-.984h0.3V34.682H171.48v1.375Zm5.485,0H179.8q-1.386.453-2.835,0.828V36.057Zm-4.316,6.734h7.494v0.391h-7.494V42.792Zm0-1.609h7.494v0.359h-7.494V41.182Zm0-1.641h7.494v0.391h-7.494V39.542Zm18.891-6.234h-5.983v2.422h1.807v-0.75h10.548v0.828h1.807v-2.5h-6.185V32.229H191.54v1.078Zm-4.861,4.359h2.695a13.993,13.993,0,0,1-.872,1.5q-0.919.016-1.87,0.016l0.374,1.8a78.833,78.833,0,0,0,9.223-.766q0.4,0.625.748,1.266l1.667-.984a14.076,14.076,0,0,0-1.978-2.828h1.869V35.932H186.679v1.734Zm3.864,1.406a13.415,13.415,0,0,0,.825-1.406h4.051l-0.81.5q0.249,0.281.514,0.578-2.227.234-4.58,0.328h0Zm-4.223,4.656H191.6v1.063h-5.983v1.7h13.96v-1.7h-6.107V43.729h5.422V42.057h-5.422V40.979H191.6v1.078H186.32v1.672Zm16.2-11.172V40.1a18.216,18.216,0,0,1-.281,3.534,9.545,9.545,0,0,1-.7,2.438L203.2,46.7a9.835,9.835,0,0,0,.732-2.344,17.641,17.641,0,0,0,.265-2.8h1.823v2.188q0,1.125-.561,1.125a5.011,5.011,0,0,1-1.012-.109l0.389,1.75h0.919a1.775,1.775,0,0,0,1.932-2.078V32.557h-5.172Zm1.7,5.422h1.807v1.953h-1.807V37.979Zm0-3.75h1.807v2.125h-1.807V34.229ZM214,39.792a11.7,11.7,0,0,1-.872,2.3,12.67,12.67,0,0,1-1.309-2.3H214Zm-3.63,5.125V40.26a14.439,14.439,0,0,0,1.761,3.344,5.318,5.318,0,0,1-1.761,1.313h0Zm0.748,1.766a6.6,6.6,0,0,0,2.166-1.656,12.626,12.626,0,0,0,1.76,1.656l1.309-1.641a12.46,12.46,0,0,1-1.994-1.5,13.94,13.94,0,0,0,1.5-4.109V38.167h-5.484V34.229H213.5a5.658,5.658,0,0,1-.281,1.5,0.338,0.338,0,0,1-.343.141,9.654,9.654,0,0,1-1.62-.141l0.358,1.7a12.141,12.141,0,0,0,1.559.109,1.963,1.963,0,0,0,1.417-.453q0.717-.672.779-4.531h-6.793V46.682h1.792V45.229Zm7.128-12.328h4.113a8.835,8.835,0,0,1-1.122.922,11.185,11.185,0,0,0-1.262-.656l-1.184,1.25a19.5,19.5,0,0,1,2.1,1.313h-2.913v1.625H220.5a12.084,12.084,0,0,1-2.758,3.828l1.309,1.313a15.992,15.992,0,0,0,1.667-2.2v2.078a3.807,3.807,0,0,1-.062.8,0.236,0.236,0,0,1-.234.188,4.978,4.978,0,0,1-1.5-.234l0.3,1.8a4.921,4.921,0,0,0,1.434.2,1.627,1.627,0,0,0,1.417-.547,3.233,3.233,0,0,0,.343-1.781V38.807h0.67a8.954,8.954,0,0,1-.561,1.364l1.262,0.808a9.59,9.59,0,0,0,.873-1.691l0.794,1.069q0.576-.217,1.106-0.465c-0.01.258-.021,0.522-0.031,0.79h-2.056v1.672h1.76a4.219,4.219,0,0,1-.311.688,5.2,5.2,0,0,1-2.26,2l0.982,1.641a6.81,6.81,0,0,0,2.773-2.547,5.267,5.267,0,0,0,.639-1.781h1.948a20.73,20.73,0,0,1-.109,2.188,1.093,1.093,0,0,1-.094.359,0.192,0.192,0,0,1-.156.078,5.5,5.5,0,0,1-1.573-.3l0.2,1.813a5.956,5.956,0,0,0,1.371.188,2.631,2.631,0,0,0,1.122-.219,1.021,1.021,0,0,0,.577-0.625,22.524,22.524,0,0,0,.467-5.156h-3.537q0.047-.547.063-1.2h-1a9.015,9.015,0,0,0,1.107-.687,13.243,13.243,0,0,0,3.256,1.375l0.794-1.672a14.324,14.324,0,0,1-2.633-1.047A6.017,6.017,0,0,0,231,35.042h1.262V33.37h-4.8q0.171-.39.312-0.812l-1.7-.391a9.4,9.4,0,0,1-.841,1.859,7.347,7.347,0,0,1-1.215,1.641l1.137,1.25a5.962,5.962,0,0,0,.592-0.656,8.508,8.508,0,0,0,1.2,1.391,12.04,12.04,0,0,1-2.041,1,1.209,1.209,0,0,0,.062-0.156V37.182h-2.025l0.389-.5q-0.234-.187-0.529-0.406a11.136,11.136,0,0,0,1.963-2.047V32.682h-6.528v1.672Zm10.921,0.688a4.049,4.049,0,0,1-.81,1.453,8.07,8.07,0,0,1-1.4-1.453h2.212Z"/>
  </g>
  <g id="_2" data-name="2">
    <rect id="矩形_13_拷貝_3-2" data-name="矩形 13 拷貝 3" class="cls-1" y="-70" width="257" height="55"/>
    <path id="STEP_拷貝" data-name="STEP 拷貝" class="cls-2" d="M85.226-60.036a2.823,2.823,0,0,0-2.154-.86,2.109,2.109,0,0,0-2.383,2.06,2.092,2.092,0,0,0,1.635,2.05,11.994,11.994,0,0,1,1.336.59,1.53,1.53,0,0,1,.977,1.37,1.434,1.434,0,0,1-1.615,1.28,2.389,2.389,0,0,1-1.885-.97l-0.658.6a3.135,3.135,0,0,0,2.533,1.21c1.566,0,2.583-.83,2.583-2.13a2.059,2.059,0,0,0-.867-1.72,6.4,6.4,0,0,0-1.915-.93,1.332,1.332,0,0,1-1.167-1.33,1.229,1.229,0,0,1,1.426-1.24,2.287,2.287,0,0,1,1.586.67Zm7.788,0.1v-0.8H87.63v0.8h2.244v7.07h0.9v-7.07h2.244Zm6.851,0.04v-0.84H95.578v7.871h4.378v-0.84h-3.48v-2.83h3.081v-0.84H96.475V-59.9h3.391Zm3.69,3.05V-59.9H105.2a1.45,1.45,0,0,1,1.506,1.52,1.463,1.463,0,0,1-1.506,1.53h-1.645Zm-0.9-3.89v7.871h0.9v-3.14h1.7a2.291,2.291,0,0,0,2.4-2.37,2.283,2.283,0,0,0-2.4-2.36h-2.6Z"/>
    <path id="_02" data-name="02" class="cls-2" d="M85.317-50.053c-5.245,0-8.131,4.544-8.131,12.791,0,8.185,2.886,12.7,8.1,12.7s8.1-4.513,8.1-12.7S90.5-50.053,85.317-50.053Zm-0.062,2.676c3.352,0,5.151,3.486,5.151,10.083,0,6.536-1.8,10.052-5.089,10.052-3.383,0-5.151-3.486-5.151-10.052C80.166-43.829,81.966-47.377,85.255-47.377ZM96.516-25.063h15.7v-2.614H99.588c0.931-2.334,2.886-4.668,5.865-6.94l1.056-.809c4-3.081,5.306-4.948,5.306-7.718,0-4.2-2.917-6.94-7.324-6.94a7.787,7.787,0,0,0-7.447,4.73l2.2,1.494c1.3-2.49,2.886-3.61,5.182-3.61a4.144,4.144,0,0,1,4.407,4.295,5.037,5.037,0,0,1-1.3,3.361,15.221,15.221,0,0,1-2.824,2.49l-1.086.84c-3.818,3.05-6.145,5.882-7.107,8.807v2.614Z"/>
    <path id="出示樂天信用卡及_當日機票或登機證" data-name="出示樂天信用卡及 當日機票或登機證" class="cls-2" d="M121.021-55.152H125.9v5.125h-3.8v-4h-1.823v6.578H122.1v-0.812h9.4v0.75h1.823v-6.516h-1.823v4h-3.8v-5.125h4.877v-5.672h-1.807v4h-3.07V-61.9H125.9v5.078h-3.07v-4.062h-1.807v5.734Zm16.336-4.422h11.358v-1.766H137.357v1.766Zm-1.106,4.063h5.92v5.25q0,0.875-.452.875a5.354,5.354,0,0,1-1.807-.328l0.327,2a5.3,5.3,0,0,0,1.48.2,2.494,2.494,0,0,0,1.823-.531,2.639,2.639,0,0,0,.483-1.922v-5.547h5.8v-1.766h-13.57v1.766Zm-0.39,5.734,1.574,1.375a22.667,22.667,0,0,0,2.975-5.312l-1.6-.984a21.915,21.915,0,0,1-2.945,4.922h0Zm9.551-4a27.778,27.778,0,0,0,1.667,3.25,13.064,13.064,0,0,0,1.558,2.125l1.636-1.312a10.588,10.588,0,0,1-1.589-2,20.237,20.237,0,0,1-1.6-2.984Zm7.906-6.187-0.109-.109-1.075,1.313q0.951,0.938,1.839,1.859-0.531.844-1.153,1.719-0.343.047-.748,0.094l0.327,1.7q1.886-.359,3.521-0.828,0.032,0.2.078,0.438l1.075-.437v0.5h4.534v-0.141q1.963-.219,3.661-0.547,0.109,0.391.2,0.828l1.309-.562a19.161,19.161,0,0,0-1.107-3.141l-0.934.453q0.871-1.219,1.807-2.687l-1.558-.687q-0.5.906-1.122,1.859-0.2-.156-0.42-0.328,0.715-1.093,1.542-2.609l-1.511-.625a20.363,20.363,0,0,1-1.231,2.328,1.96,1.96,0,0,1-.265-0.2l-0.374.469V-60.7h-1.636a6.778,6.778,0,0,0,.265-0.812l-1.667-.391a9.193,9.193,0,0,1-.343,1.2h-1.153v1.281l-1.371-.609q-0.373.766-.826,1.563l-0.451-.453q0.684-.984,1.464-2.359l-1.5-.625a16.272,16.272,0,0,1-1.075,1.938h0Zm10.626,4.234q0.3-.39.608-0.828c0.093,0.24.187,0.49,0.28,0.75q-0.4.047-.888,0.078h0ZM161.607-57.9q0.622,0.5,1.246,1.016-0.452.656-1.012,1.328a1.451,1.451,0,0,1-.234.016V-57.9Zm-5.173.813-0.81.359q0.671-1.047,1.434-2.281v4.156a21.141,21.141,0,0,0-.624-2.234h0ZM154.8-55.48q0.3-.406.593-0.875c0.072,0.219.14,0.464,0.2,0.734l-0.795.141h0Zm3.88-.922h1.309v1.125h-1.309V-56.4Zm0-2.75h1.309v1.25h-1.309v-1.25Zm-6.092,7.875h4.331a11,11,0,0,1-1.5.813,18.309,18.309,0,0,1-3.288,1.188l0.888,1.5a20.07,20.07,0,0,0,3.833-1.641,13.841,13.841,0,0,0,1.387-.969v2.938h1.869v-3.219a12.17,12.17,0,0,0,1.761,1.3,15.98,15.98,0,0,0,3.661,1.656l1.013-1.859a18.579,18.579,0,0,1-3.365-1,11.854,11.854,0,0,1-1.465-.7h4.378v-1.484h-5.983v-0.687h-1.869v0.688h-5.656v1.484Zm17.13-8.234h4.8q0,2.438-.047,2.563,0,0.188-.015.359h-5.422v1.828h5.219a5.833,5.833,0,0,1-1.184,2.563,9.863,9.863,0,0,1-4.394,2.813l0.811,1.75a11.683,11.683,0,0,0,5.032-3.156,7.21,7.21,0,0,0,1.137-1.859,9.382,9.382,0,0,0,1.886,2.609,13.989,13.989,0,0,0,3.972,2.656l1.122-1.766a10.775,10.775,0,0,1-4.6-3.141,9.575,9.575,0,0,1-1.558-2.469h5.656v-1.828h-5.781q0.031-.625.032-2.922h5.125v-1.828H169.716v1.828Zm14.793,4.125,0.92,1.813a14.319,14.319,0,0,0,.825-1.2v7.266h1.792V-58.355a28.429,28.429,0,0,0,1.075-3.031l-1.76-.516a22.245,22.245,0,0,1-2.852,6.516h0Zm5.8-4.516h7.65v-1.672h-7.65V-59.9Zm-1.371,2.188h10.158v-1.672H188.934v1.672Zm0.81,2.188h8.336v-1.625h-8.336v1.625Zm0,2.141h8.336v-1.625h-8.336v1.625Zm-0.124.563v5.375h1.791v-0.516h5.111v0.516h1.823v-5.375H189.62Zm1.791,1.672h5.111v1.516h-5.111v-1.516Zm11.241-10.187v5.766a19.1,19.1,0,0,1-.343,3.594,16.437,16.437,0,0,1-1.168,3.453l1.683,1.016a13.735,13.735,0,0,0,1.184-3.156q0.171-.781.28-1.594h3.459V-47.9h1.87v-4.359h3.24v1.438q0,1.25-.561,1.25a4.724,4.724,0,0,1-1.5-.266l0.452,2.063q0.779,0.062,1.371.063,2.118,0,2.118-2.422v-11.2h-12.09Zm1.792,6.688v-1.312h3.3v1.891h-3.319c0.011-.177.016-0.37,0.016-0.578h0Zm8.413-1.312v1.891h-3.24v-1.891h3.24Zm-8.413-3.547h3.3v1.734h-3.3v-1.734Zm8.413,0v1.734h-3.24v-1.734h3.24Zm9.668,2.813h-5.173v1.75h5.235v7.438h1.823v-4.75a39.508,39.508,0,0,1,3.926,3.172L229.52-50.7a44.933,44.933,0,0,0-5.11-3.625v-0.625h7.042V-56.7h-7.1v-1.7h5.983v-1.734h-5.983V-61.9h-1.822v5.2Zm22.4,1.422a9.492,9.492,0,0,1-2.4,3c-0.052.042-.114,0.089-0.187,0.141a3.387,3.387,0,0,1-.327-0.266,23.57,23.57,0,0,1-3.1-2.875h6.014Zm-8.414,6.188,0.92,1.7a23.323,23.323,0,0,0,4.892-2.406,24.153,24.153,0,0,0,4.845,2.406l0.92-1.828A20.816,20.816,0,0,1,244-51.058a11.413,11.413,0,0,0,3.038-4.156v-1.875H243.8a19.325,19.325,0,0,0,1.994-4.25H234.638v1.766h2.01a26.064,26.064,0,0,1-.982,7.016,9.32,9.32,0,0,1-2.462,3.609l1.5,1.234a10.485,10.485,0,0,0,2.649-3.922,12.93,12.93,0,0,0,.53-2.016,22.127,22.127,0,0,0,2.773,2.688,23.478,23.478,0,0,1-4.145,1.875h0Zm1.792-8q0.109-1.125.172-2.484h4.767a17.5,17.5,0,0,1-1.433,2.484H238.3ZM125.835-36.027h-1.262a11.657,11.657,0,0,0-1.23-1.547l-1.434.922c0.187,0.209.359,0.417,0.514,0.625h-2.648v3.7h1.807V-34.4h10.361v2.078h1.792v-3.7H130.93a10.2,10.2,0,0,0,.686-0.984l-1.87-.562a10.614,10.614,0,0,1-.826,1.547h-1.293v-1.937h-1.792v1.938Zm-3.567,5.562h8.725v-3.5h-8.725v3.5Zm1.76-2h5.235v0.5h-5.235v-0.5Zm-3.069,2.437v6.516h1.76v-0.25h8.149v0.25h1.76v-6.516H120.959Zm1.76,3.938h3.116v0.7h-3.116v-0.7Zm4.846,0h3.3v0.7h-3.3v-0.7ZM122.719-28.4h3.116v0.688h-3.116V-28.4Zm8.149,0v0.688h-3.3V-28.4h3.3Zm6.629-8.75v13.641h1.932v-0.75h7.214v0.75h1.931V-37.152H137.5Zm1.932,7.25h7.214v3.766h-7.214V-29.9Zm0-5.375h7.214v3.5h-7.214v-3.5Zm12.845,1.7h1.309V-33.4a20.984,20.984,0,0,1-.607,2.312,16.694,16.694,0,0,1-1,2.688l0.982,1.25a17.96,17.96,0,0,0,.623-1.687v5.391H155.2v-7.094q0.357,0.547.747,1.2l0.92-1.3,0.062,0.375a9.75,9.75,0,0,0,3.054-.531c0.02,0.115.041,0.245,0.062,0.391l1.106-.328q0.094,0.516.2,1.016h-4.612V-28.2h1.091a9.252,9.252,0,0,1-.359,2.094,5.26,5.26,0,0,1-.9,1.7l1.48,0.953a6.168,6.168,0,0,0,1-2.047q0.078-.266.156-0.594,0.654,0.406,1.293.875l0.919-1.312a19.918,19.918,0,0,0-1.979-1.078c0.011-.187.021-0.385,0.032-0.594h2.259A12.953,12.953,0,0,0,162.5-26a8.335,8.335,0,0,1-2.119,1.109l0.81,1.438a10.286,10.286,0,0,0,2.119-1.141c0.042,0.063.083,0.12,0.125,0.172a1.968,1.968,0,0,0,1.418.906,1.386,1.386,0,0,0,.888-0.3,3.092,3.092,0,0,0,.981-1.766l-1.542-.625a4.306,4.306,0,0,1-.14.8,0.291,0.291,0,0,1-.125.188,0.723,0.723,0,0,1-.436-0.391,8.826,8.826,0,0,0,1.2-1.734l-1.448-.687a6.641,6.641,0,0,1-.546.813,7.789,7.789,0,0,1-.358-0.984h3.225v-1.516h-1.262l0.452-.484a6.728,6.728,0,0,0-.966-0.687,2.91,2.91,0,0,0,.623-0.2q0.047,0.219.078,0.438l1.246-.359a11.79,11.79,0,0,0-.747-2.625l-0.639.188q0.467-.906.95-2l-1.371-.625q-0.312.875-.732,1.8a3.414,3.414,0,0,0-.281-0.25q0.561-1.125,1.216-2.75l-1.371-.625a25.871,25.871,0,0,1-.982,2.641c-0.062-.041-0.13-0.083-0.2-0.125l-0.2.391q-0.063-1.344-.062-2.969l-1.668.125q0.017,1.375.078,2.609l-1.215-.547q-0.249.609-.576,1.266c-0.084-.062-0.177-0.125-0.281-0.187q0.607-1.093,1.309-2.578l-1.371-.625a22.034,22.034,0,0,1-1.106,2.531c-0.084-.041-0.172-0.088-0.265-0.141L156.31-34.4a10.819,10.819,0,0,1,1.932,1.219q-0.375.7-.857,1.453-0.327.016-.7,0.016l0.109,0.641a21.071,21.071,0,0,0-1.589-1.641v-0.859h0.981v-1.578H155.2V-37.9h-1.621v2.75h-1.309v1.578Zm10.673,3.859c-0.011-.073-0.026-0.151-0.047-0.234a29.194,29.194,0,0,1-.483-3.984,13.609,13.609,0,0,1,1.2.859q-0.234.516-.514,1.031c-0.146.011-.291,0.016-0.437,0.016l0.25,1.375a10.1,10.1,0,0,0,1.122-.094l-0.561.672a4.52,4.52,0,0,1,.545.359h-1.075Zm-2.384-3.562-0.826.234q0.468-.828.982-1.828,0.078,1.563.249,2.906a12.009,12.009,0,0,0-.405-1.312h0Zm-1.48,1.344c0.145-.229.291-0.479,0.436-0.75q0.094,0.281.187,0.594a5.4,5.4,0,0,1-.623.156h0Zm5.625-.3q0.124-.25.28-0.516c0.041,0.136.083,0.281,0.125,0.438a3.993,3.993,0,0,1-.405.078h0Zm3.886-3.734h4.363v0.578h-3.474v4.234h12.2v-4.234h-3.537v-0.578h4.347v-1.672h-13.9v1.672Zm6.123,0.578v-0.578h1.668v0.578h-1.668Zm-3.427,1.672h1.667v0.891H171.29v-0.891Zm5.095,0v0.891h-1.668v-0.891h1.668Zm3.49,0v0.891h-1.73v-0.891h1.73Zm-9.6,4.641H181V-30.7H170.277v1.625Zm-1.745,2.188h6.248v0.813q0,0.8-.39.8a3.145,3.145,0,0,1-1.308-.3l0.327,1.859a2.367,2.367,0,0,0,.981.2,2.4,2.4,0,0,0,1.73-.5,2.4,2.4,0,0,0,.452-1.766v-1.109h6.06v-1.7h-14.1v1.7Zm-0.125,1.438,0.951,1.672a13.109,13.109,0,0,0,3.49-1.8L171.477-26.7a13.739,13.739,0,0,1-3.07,1.25h0Zm9.224,0a16.218,16.218,0,0,0,1.916,1.094,16.676,16.676,0,0,0,1.777.719l0.981-1.75a15.911,15.911,0,0,1-1.636-.484A11.311,11.311,0,0,1,179-26.589Zm7.439-8.516h7.354a24.959,24.959,0,0,0,.919,5.25c0.115,0.427.244,0.839,0.39,1.234a11.534,11.534,0,0,1-1.792,1.563l-0.2-1.422q-2.774.547-6.871,0.938l0.327,1.875q3.335-.391,6.154-0.984c-0.218.146-.447,0.286-0.685,0.422l0.888,1.641a14.281,14.281,0,0,0,3.007-2.2,7.974,7.974,0,0,0,.888,1.234,2.419,2.419,0,0,0,1.651.906,1.424,1.424,0,0,0,1.044-.437,4.973,4.973,0,0,0,1.184-2.641l-1.792-.687a7.032,7.032,0,0,1-.218,1.453,0.6,0.6,0,0,1-.155.375,1.49,1.49,0,0,1-.842-0.891,6.329,6.329,0,0,1-.436-0.8,21.527,21.527,0,0,0,2.633-5.062l-1.6-.812a20.826,20.826,0,0,1-1.838,3.766q-0.124-.422-0.234-0.875a23.751,23.751,0,0,1-.545-3.844h4.8v-1.75h-1.448l0.7-.875a11.643,11.643,0,0,0-1.932-1.375L195.1-36.589a12.376,12.376,0,0,1,1.137.875H194.2q-0.046-1.062-.046-2.312l-1.917.188q0.015,1.094.062,2.125H185.07v1.75Zm0.5,6h5.905v-4.984h-5.905v4.984Zm1.792-3.25h2.321v1.5h-2.321v-1.5Zm14.606-3.326q0.732,0.626,1.355,1.268a11.114,11.114,0,0,1-2.43,1.127l0.576,1.44a8.345,8.345,0,0,0,1.48-.517v4.007h2.306l-1.106.516a6.728,6.728,0,0,1,.7,1.422h-3.443v1.7h13.508v-1.7h-3.755q0.452-.688.9-1.547l-1.4-.391h2.447v-4.047q0.405,0.266.825,0.5l1.309-1.562a18.911,18.911,0,0,1-2.353-1.344,11.115,11.115,0,0,0,1.964-1.609L213.434-36.4a9.232,9.232,0,0,1-2.01,1.656q-0.405-.312-0.81-0.672a10.035,10.035,0,0,0,2.243-1.406L211.549-37.9a9.421,9.421,0,0,1-2.244,1.266,5.616,5.616,0,0,1-.608-0.609v-0.469h-7v1.625h4.736a10.8,10.8,0,0,1-1.48,1.612,13.563,13.563,0,0,0-1.387-1.174Zm7.478,0.341h-2.321q0.53-.562,1.09-1.25,0.593,0.641,1.231,1.25h0Zm-3.552,1.625H210.8v-0.391q0.716,0.59,1.48,1.125h-8.133a14.234,14.234,0,0,0,1.293-.844q0.2-.156.452-0.359v0.469Zm0.81,6.8a7.929,7.929,0,0,0-.779-1.437h4.02a17.63,17.63,0,0,1-.842,1.938h-3.567Zm-1.994-4.359h6.668v1.25h-6.668v-1.25Zm12.658-3.437h1.309V-33.4a20.984,20.984,0,0,1-.607,2.312,16.694,16.694,0,0,1-1,2.688l0.982,1.25a17.96,17.96,0,0,0,.623-1.687v5.391H220.3v-7.094q0.357,0.547.747,1.2l0.92-1.3,0.062,0.375a9.75,9.75,0,0,0,3.054-.531c0.02,0.115.041,0.245,0.062,0.391l1.106-.328q0.095,0.516.2,1.016h-4.612V-28.2h1.091a9.252,9.252,0,0,1-.359,2.094,5.26,5.26,0,0,1-.9,1.7l1.48,0.953a6.168,6.168,0,0,0,1-2.047q0.078-.266.156-0.594,0.654,0.406,1.293.875l0.919-1.312a19.918,19.918,0,0,0-1.979-1.078c0.011-.187.021-0.385,0.032-0.594h2.259a12.953,12.953,0,0,0,.763,2.2,8.335,8.335,0,0,1-2.119,1.109l0.81,1.438a10.286,10.286,0,0,0,2.119-1.141c0.042,0.063.083,0.12,0.125,0.172a1.968,1.968,0,0,0,1.418.906,1.388,1.388,0,0,0,.888-0.3,3.092,3.092,0,0,0,.981-1.766l-1.542-.625a4.306,4.306,0,0,1-.14.8,0.291,0.291,0,0,1-.125.188,0.723,0.723,0,0,1-.436-0.391,8.826,8.826,0,0,0,1.2-1.734l-1.449-.687a6.523,6.523,0,0,1-.545.813,7.789,7.789,0,0,1-.358-0.984h3.225v-1.516h-1.262l0.452-.484a6.728,6.728,0,0,0-.966-0.687,2.91,2.91,0,0,0,.623-0.2q0.047,0.219.078,0.438l1.246-.359a11.737,11.737,0,0,0-.748-2.625l-0.638.188q0.467-.906.95-2L230-36.074q-0.312.875-.732,1.8a3.587,3.587,0,0,0-.281-0.25q0.561-1.125,1.216-2.75l-1.372-.625a25.626,25.626,0,0,1-.981,2.641c-0.062-.041-0.13-0.083-0.2-0.125l-0.2.391q-0.063-1.344-.062-2.969l-1.668.125q0.017,1.375.078,2.609l-1.215-.547q-0.249.609-.576,1.266c-0.084-.062-0.177-0.125-0.281-0.187q0.608-1.093,1.309-2.578l-1.371-.625a22.21,22.21,0,0,1-1.106,2.531c-0.084-.041-0.172-0.088-0.265-0.141L221.4-34.4a10.854,10.854,0,0,1,1.932,1.219q-0.375.7-.857,1.453-0.327.016-.7,0.016l0.109,0.641a21.071,21.071,0,0,0-1.589-1.641v-0.859h0.981v-1.578H220.3V-37.9h-1.621v2.75h-1.309v1.578Zm10.673,3.859c-0.011-.073-0.026-0.151-0.047-0.234a29.194,29.194,0,0,1-.483-3.984,13.609,13.609,0,0,1,1.2.859q-0.234.516-.514,1.031c-0.146.011-.291,0.016-0.437,0.016l0.25,1.375a10.1,10.1,0,0,0,1.122-.094l-0.561.672a4.52,4.52,0,0,1,.545.359H228.04Zm-2.384-3.562-0.826.234q0.468-.828.982-1.828,0.078,1.563.249,2.906a12.009,12.009,0,0,0-.405-1.312h0Zm-1.48,1.344c0.145-.229.291-0.479,0.436-0.75q0.095,0.281.187,0.594a5.4,5.4,0,0,1-.623.156h0Zm5.624-.3q0.125-.25.281-0.516c0.041,0.136.083,0.281,0.125,0.438a3.962,3.962,0,0,1-.406.078h0Zm4.386-3.8H238.3v-1.687h-4.113v1.688ZM233.5-33.839h5.36v-0.828q0.436,0.422.857,0.876a5.571,5.571,0,0,1-1.215.851l0.483,1.383a5.637,5.637,0,0,0,1.807-1.068v0.678H245.4v-0.721a13.6,13.6,0,0,0,1.636,1.111l0.935-1.707a8.941,8.941,0,0,1-1.06-.58,14.238,14.238,0,0,0,.935-1.489l-1.5-.862a7.589,7.589,0,0,1-.888,1.379q-0.2-.157-0.421-0.345a13.229,13.229,0,0,0,.935-1.489l-1.495-.862a8.15,8.15,0,0,1-.733,1.175l-0.28-.282v-1.018h-3.8v1.563h1.808a6.184,6.184,0,0,1-.577.938,10.4,10.4,0,0,0-.857-0.766l-1.184.828v-0.5H233.5v1.734Zm9.364-1.2a16.682,16.682,0,0,0,1.5,1.469h-2.586a11.3,11.3,0,0,0,1.09-1.469h0Zm-8.8,3.406h4.316v-1.7h-4.316v1.7Zm0,2.188h4.316v-1.7h-4.316v1.7Zm-0.171.563v5.438h1.667v-0.625H236.8v0.625h1.7v-5.437H233.89Zm1.667,1.625H236.8v1.625h-1.246v-1.625Zm4.191,0.172h1.636l-1.091.5a6.139,6.139,0,0,1,.53,1.313h-1.76v1.563H247.4v-1.562h-2.134q0.327-.641.654-1.422l-1.356-.391h1.979v-4.25h-6.793v4.25Zm2.867,1.453a9.948,9.948,0,0,0-.7-1.453h2.15a16.886,16.886,0,0,1-.592,1.813h-1.761Zm-1.2-4.141h3.428v1.125h-3.428v-1.125Z"/>
    <path id="形狀_6_拷貝_3-2" data-name="形狀 6 拷貝 3" class="cls-2" d="M63-65h2v46H63V-65Z"/>
    <path id="形狀_9" data-name="形狀 9" class="cls-2" d="M46.543-47.612L23.92-40.057a2.807,2.807,0,0,0-1.727,3.528l0.891,2.789,1.162,0.676a3.558,3.558,0,0,1,1.6,2,3.646,3.646,0,0,1-.165,2.652l-0.529,1.133L26.133-24.2a2.72,2.72,0,0,0,3.431,1.805l22.623-7.555a2.808,2.808,0,0,0,1.727-3.528L52.885-36.7l-1.13-.534a3.239,3.239,0,0,1-1.683-1.943,3.334,3.334,0,0,1,.182-2.473l0.637-1.289-0.917-2.871a2.72,2.72,0,0,0-3.431-1.805M48.936-43.1l-0.3.6a5.258,5.258,0,0,0-.288,3.905,5.109,5.109,0,0,0,2.656,3.066l0.406,0.191,0.78,2.443a0.937,0.937,0,0,1-.576,1.176L29-24.17a0.906,0.906,0,0,1-1.144-.6L27.1-27.136l0.212-.454a5.543,5.543,0,0,0,.253-4.045,5.418,5.418,0,0,0-2.437-3.054l-0.543-.316-0.67-2.1a0.935,0.935,0,0,1,.576-1.176l22.623-7.555a0.907,0.907,0,0,1,1.144.6Zm-5.18,4.985L32.583-34.449l-1.439-1.168a0.886,0.886,0,0,0-1.272.153,0.959,0.959,0,0,0,.157,1.315l2.2,1.782L38.7-34.493l-0.6,1.767a0.948,0.948,0,0,0,.556,1.193,0.876,0.876,0,0,0,.584.01,0.911,0.911,0,0,0,.57-0.574L40.865-35.2l3.448-1.132,0.005,0a0.935,0.935,0,0,0,.578-1.171,0.908,0.908,0,0,0-1.14-.609"/>
    <path id="圓角矩形_6" data-name="圓角矩形 6" class="cls-3" d="M10.264-55.688l23.77-7.938a1.9,1.9,0,0,1,2.417,1.231l4.472,14a1.961,1.961,0,0,1-1.24,2.452l-23.77,7.938A1.9,1.9,0,0,1,13.5-39.238l-4.472-14A1.961,1.961,0,0,1,10.264-55.688Z"/>
    <path id="形狀_10" data-name="形狀 10" class="cls-2" d="M15.6-52.305l-0.414.138,0.333,1.043,0.414-.138a0.556,0.556,0,0,0,.351-0.695A0.539,0.539,0,0,0,15.6-52.305Zm-0.67-2.087a3.334,3.334,0,0,0-2.108,4.17,3.229,3.229,0,0,0,4.109,2.092A3.334,3.334,0,0,0,19.036-52.3,3.231,3.231,0,0,0,14.927-54.392ZM17.28-49.85l-1.111-.784-0.449.15,0.333,1.044-0.635.212-1.075-3.365,1.049-.35a1.2,1.2,0,0,1,1.523.775,1.24,1.24,0,0,1-.183,1.107l1.342,0.946Z"/>
    <path id="圓角矩形_5" data-name="圓角矩形 5" class="cls-2" d="M28.2-57.193l5.851-1.954a0.57,0.57,0,0,1,.725.369l0.118,0.368a0.589,0.589,0,0,1-.372.736l-5.851,1.954a0.57,0.57,0,0,1-.725-0.369l-0.118-.368A0.588,0.588,0,0,1,28.2-57.193Z"/>
    <path id="矩形_12" data-name="矩形 12" class="cls-2" d="M12.958-45.989l24.867-8.3,1.295,4.052-24.867,8.3Z"/>
  </g>
  <g id="群組_1" data-name="群組 1">
    <rect id="矩形_13_拷貝_3-3" data-name="矩形 13 拷貝 3" class="cls-1" y="-140" width="257" height="55"/>
    <path id="形狀_6_拷貝_3-3" data-name="形狀 6 拷貝 3" class="cls-2" d="M63-135h2v46H63v-46Z"/>
    <path id="形狀_8" data-name="形狀 8" class="cls-2" d="M18.315-120.674a4.236,4.236,0,0,0,4.3-4.163,4.236,4.236,0,0,0-4.3-4.163,4.236,4.236,0,0,0-4.3,4.163,4.236,4.236,0,0,0,4.3,4.163m0-5.551a1.415,1.415,0,0,1,1.432,1.388,1.414,1.414,0,0,1-1.432,1.388,1.414,1.414,0,0,1-1.432-1.388,1.414,1.414,0,0,1,1.432-1.388M49.7-110.96H22.91v-4.368a4.236,4.236,0,0,0-4.3-4.163h-0.3a4.236,4.236,0,0,0-4.3,4.163v4.368h-1.73a4.234,4.234,0,0,0-4.3,4.164v8.628a4.236,4.236,0,0,0,4.3,4.163H49.7a4.236,4.236,0,0,0,4.3-4.163V-106.8a4.234,4.234,0,0,0-4.3-4.164m-32.815-4.368a1.414,1.414,0,0,1,1.432-1.387h0.3a1.414,1.414,0,0,1,1.432,1.387v4.368H16.883v-4.368Zm34.247,17.16A1.414,1.414,0,0,1,49.7-96.781H12.289a1.414,1.414,0,0,1-1.432-1.388V-106.8a1.412,1.412,0,0,1,1.432-1.388H49.7a1.412,1.412,0,0,1,1.432,1.388v8.628ZM28.34-119.316H40.957L38.569-117l2.025,1.962,5.822-5.642-1.011-.983s-4.676-4.529-4.843-4.693l-2.042,1.946c0.08,0.08,1.231,1.2,2.391,2.32H28.34v2.775Z"/>
    <path id="STEP" class="cls-2" d="M82.226-128.036a2.823,2.823,0,0,0-2.154-.86,2.109,2.109,0,0,0-2.383,2.06,2.092,2.092,0,0,0,1.635,2.05,11.994,11.994,0,0,1,1.336.59,1.53,1.53,0,0,1,.977,1.37,1.434,1.434,0,0,1-1.615,1.281,2.39,2.39,0,0,1-1.885-.971l-0.658.6a3.132,3.132,0,0,0,2.533,1.211c1.566,0,2.583-.83,2.583-2.131a2.058,2.058,0,0,0-.867-1.72,6.4,6.4,0,0,0-1.915-.93,1.332,1.332,0,0,1-1.167-1.33,1.229,1.229,0,0,1,1.426-1.24,2.287,2.287,0,0,1,1.586.67Zm7.788,0.1v-0.8H84.63v0.8h2.244v7.071h0.9v-7.071h2.244Zm6.851,0.04v-0.84H92.578v7.871h4.378v-0.841h-3.48v-2.83h3.081v-0.84H93.475v-2.52h3.391Zm3.69,3.05v-3.05H102.2a1.45,1.45,0,0,1,1.506,1.52,1.463,1.463,0,0,1-1.506,1.53h-1.645Zm-0.9-3.89v7.871h0.9v-3.141h1.7a2.291,2.291,0,0,0,2.4-2.37,2.283,2.283,0,0,0-2.4-2.36h-2.6Z"/>
    <path id="_01" data-name="01" class="cls-2" d="M85.317-118.054c-5.245,0-8.131,4.544-8.131,12.791,0,8.186,2.886,12.7,8.1,12.7s8.1-4.513,8.1-12.7S90.5-118.054,85.317-118.054Zm-0.062,2.677c3.352,0,5.151,3.486,5.151,10.083,0,6.536-1.8,10.053-5.089,10.053-3.383,0-5.151-3.486-5.151-10.053C80.166-111.829,81.966-115.377,85.255-115.377Zm20.881,22.314v-24.493H99.9v2.615h3.444v21.878h2.793Z"/>
    <path id="VIP" class="cls-2" d="M22.308-99.14h2.126l1.962-6.626H24.6l-0.675,2.9c-0.174.7-.307,1.387-0.49,2.1H23.392c-0.184-.713-0.307-1.4-0.491-2.1l-0.7-2.9h-1.86Zm7.783,0h1.758v-6.626H30.091v6.626Zm6.292,0H38.14v-2.1h0.818c1.39,0,2.657-.7,2.657-2.324,0-1.672-1.226-2.2-2.657-2.2H36.383v6.626Zm1.758-3.486v-1.753h0.736a0.815,0.815,0,0,1,1.022.815,0.877,0.877,0,0,1-1.022.938H38.14Z"/>
    <path id="前往日本指定_機場貴賓室" data-name="前往日本指定 機場貴賓室" class="cls-2" d="M124.082-129.959a5.117,5.117,0,0,1,.686,1.125h-3.615v1.7h13.882v-1.7h-3.474a10.592,10.592,0,0,0,.794-1.375l-2.056-.562a14.587,14.587,0,0,1-.811,1.937h-3.661l0.982-.437a7.891,7.891,0,0,0-1.044-1.5ZM121.7-126.5v10.187h1.808v-3.25h2.742v0.734q0,0.813-.359.813a5.2,5.2,0,0,1-1.308-.188l0.358,1.829a8.332,8.332,0,0,0,.95.062,1.878,1.878,0,0,0,2.182-2.062V-126.5H121.7Zm1.808,4.312h2.742v1h-2.742v-1Zm0-2.641h2.742v1.016h-2.742v-1.016Zm5.873,5.766h1.808v-6.953h-1.808v6.953Zm3.35,0a4.889,4.889,0,0,1-.047.8,0.2,0.2,0,0,1-.187.187,7.543,7.543,0,0,1-1.869-.234l0.3,1.813a8.43,8.43,0,0,0,1.807.187,1.716,1.716,0,0,0,1.465-.547,3.127,3.127,0,0,0,.358-1.781v-8.063h-1.823v7.641Zm6.3-9.937a12.144,12.144,0,0,1-1.807,1.546l1.184,1.579a11.965,11.965,0,0,0,2.072-1.813,10.582,10.582,0,0,0,1.48-2.062l-1.605-.954a9.359,9.359,0,0,1-1.324,1.7h0Zm-0.016,3.937a14.815,14.815,0,0,1-1.978,1.938l1.2,1.562a7.148,7.148,0,0,0,.561-0.469v5.657h1.792v-7.547a12.86,12.86,0,0,0,1.511-2.328l-1.636-.938a11.506,11.506,0,0,1-1.449,2.125h0Zm5.376-4.953a10.135,10.135,0,0,1,1.4,1.7h-3.9v1.734h3.63v2.829h-3.3v1.734h3.3v3.516h-4.316v1.734h10.361V-118.5H147.46v-3.516h3.163v-1.734H147.46v-2.829h3.724v-1.734h-4.55l1.06-.625A8.829,8.829,0,0,0,146.027-131Zm10.68,0v13.641H157v-0.75h7.213v0.75h1.932v-13.641H155.071Zm1.932,7.25h7.213V-119H157v-3.766Zm0-5.375h7.213v3.5H157v-3.5Zm13.157,1.375h4.8a17.112,17.112,0,0,1-2.041,3.109,14.729,14.729,0,0,1-3.209,3.078l0.95,1.641a12.423,12.423,0,0,0,2-1.656v1.531h3.225v2.688h1.869v-2.688h3.179v-1.672a13.832,13.832,0,0,0,2.181,1.8l1.013-1.953a11.923,11.923,0,0,1-3.3-2.766,17.093,17.093,0,0,1-2.1-3.109h4.955v-1.813h-5.921v-2.187h-1.869v2.187H170.16v1.813Zm4.128,4.437a22.078,22.078,0,0,0,1.59-2.484v3.922h-2.929q0.623-.626,1.339-1.438h0Zm3.459-2.578a18.667,18.667,0,0,0,1.745,2.578q0.607,0.75,1.278,1.438h-3.023v-4.016Zm8.234-1.672H187.8v2.907q-0.934.234-1.994,0.484l0.623,1.859q0.685-.187,1.371-0.406v2.547a2.87,2.87,0,0,1-.093.844,0.341,0.341,0,0,1-.359.2,5.6,5.6,0,0,1-1.371-.172l0.327,1.875a6.522,6.522,0,0,0,1.309.125,1.93,1.93,0,0,0,1.605-.578,3.228,3.228,0,0,0,.389-1.875v-3.594q0.856-.343,1.667-0.7l-0.3-1.578q-0.654.234-1.371,0.453v-2.391h1.667v-1.734h-1.667v-2.453H187.8v2.453h-1.823v1.734Zm5.858-.312a1.625,1.625,0,0,0,1.745,1.812,7.894,7.894,0,0,0,2.369.188q1.915,0,2.8-.094a1.485,1.485,0,0,0,1.091-.609,5.285,5.285,0,0,0,.545-1.594l-1.823-.828a1.482,1.482,0,0,1-.467,1.125,1.727,1.727,0,0,1-.67.156q-0.422.032-1.48,0.031a7.1,7.1,0,0,1-1.714-.171,0.586,0.586,0,0,1-.577-0.61A61.4,61.4,0,0,0,200-128.943L198.9-130.5q-2.447.781-5.235,1.375v-1.641h-1.823v3.875Zm-0.171,2.75v7.828h1.792v-0.516h4.487v0.516h1.823v-7.828h-8.1Zm1.792,4.453h4.487v1.109H193.46v-1.109Zm0-2.687h4.487v0.921H193.46v-0.921Zm15.042-7.188h-5.92v2.984h1.791v-1.234h10.112v1.234h1.792v-2.984h-5.859v-1.266H208.5v1.266Zm-4.129,4.984h4.316v5.891a3.756,3.756,0,0,1-1.7-.828,5.8,5.8,0,0,1-1-1.141,15.151,15.151,0,0,0,.638-2.8l-1.76-.359a11.78,11.78,0,0,1-.919,3.375,11.911,11.911,0,0,1-1.823,2.813l1.371,1.312a12.8,12.8,0,0,0,1.714-2.516,5.666,5.666,0,0,0,1.153,1.141,5.657,5.657,0,0,0,2.305.891,28.045,28.045,0,0,0,4.721.3h2.587l0.56-2.079a21.375,21.375,0,0,1-3.147.2q-1.667,0-2.9-.079v-2.484h4.176v-1.7H210.5v-1.938h3.989v-1.734H204.373v1.734Zm-83.345,22.141h1.309v0.172a20.82,20.82,0,0,1-.608,2.313,16.611,16.611,0,0,1-1,2.688l0.982,1.25a17.96,17.96,0,0,0,.623-1.687v5.391h1.62v-7.094q0.359,0.547.748,1.2l0.919-1.3,0.063,0.375a9.747,9.747,0,0,0,3.054-.531c0.02,0.115.041,0.245,0.062,0.391l1.106-.328q0.093,0.516.2,1.016H125.5v1.516h1.09a9.2,9.2,0,0,1-.358,2.094,5.244,5.244,0,0,1-.9,1.7l1.481,0.953a6.167,6.167,0,0,0,1-2.047c0.052-.177.1-0.375,0.156-0.594q0.654,0.406,1.293.875l0.919-1.312a19.9,19.9,0,0,0-1.979-1.078c0.01-.187.021-0.385,0.031-0.594h2.26a12.953,12.953,0,0,0,.763,2.2,8.335,8.335,0,0,1-2.119,1.109l0.81,1.438a10.311,10.311,0,0,0,2.119-1.141c0.042,0.063.083,0.12,0.125,0.172a1.966,1.966,0,0,0,1.418.906,1.388,1.388,0,0,0,.888-0.3,3.1,3.1,0,0,0,.981-1.766l-1.542-.625a4.3,4.3,0,0,1-.14.8,0.3,0.3,0,0,1-.125.188,0.721,0.721,0,0,1-.436-0.391,8.916,8.916,0,0,0,1.2-1.734l-1.449-.687a6.523,6.523,0,0,1-.545.813,7.631,7.631,0,0,1-.358-0.984H135.3v-1.516h-1.262l0.452-.484a6.728,6.728,0,0,0-.966-0.687,2.91,2.91,0,0,0,.623-0.2q0.047,0.219.078,0.438l1.246-.359a11.733,11.733,0,0,0-.748-2.625l-0.638.187q0.466-.906.95-2l-1.371-.625q-0.312.876-.732,1.8a3.546,3.546,0,0,0-.281-0.25q0.561-1.125,1.215-2.75l-1.371-.625a25.693,25.693,0,0,1-.981,2.641c-0.062-.042-0.13-0.084-0.2-0.125l-0.2.39q-0.063-1.344-.063-2.969l-1.667.125q0.016,1.376.078,2.61l-1.215-.547q-0.249.609-.576,1.266c-0.084-.063-0.177-0.125-0.281-0.188q0.608-1.093,1.309-2.578l-1.371-.625a22.246,22.246,0,0,1-1.106,2.531c-0.084-.041-0.172-0.088-0.265-0.14l-0.888,1.109A10.856,10.856,0,0,1,127-102.052q-0.375.7-.857,1.453-0.327.015-.7,0.015l0.109,0.641a21.22,21.22,0,0,0-1.59-1.641v-0.859h0.982v-1.578h-0.982v-2.75h-1.62v2.75h-1.309v1.578ZM131.7-98.583c-0.011-.073-0.026-0.151-0.047-0.234a29.205,29.205,0,0,1-.483-3.984,13.561,13.561,0,0,1,1.2.859q-0.234.516-.514,1.031c-0.146.011-.291,0.016-0.437,0.016l0.25,1.375a10.086,10.086,0,0,0,1.121-.094l-0.56.672a4.613,4.613,0,0,1,.545.359H131.7Zm-2.384-3.562-0.826.234q0.468-.828.982-1.828,0.078,1.563.249,2.906a12.041,12.041,0,0,0-.405-1.312h0Zm-1.48,1.344c0.145-.229.291-0.479,0.436-0.75,0.062,0.187.125,0.385,0.187,0.593a5.4,5.4,0,0,1-.623.157h0Zm5.624-.3q0.125-.251.281-0.516c0.041,0.136.083,0.281,0.124,0.438a4.053,4.053,0,0,1-.405.078h0Zm3.763-.531h1.511v4.968q-0.827.219-1.7,0.406l0.639,1.875a30.933,30.933,0,0,0,4.487-1.578l-0.063-.328,0.748,0.656a7.1,7.1,0,0,0,1.636-1.7h0.421a9.7,9.7,0,0,1-1,1.359,11.893,11.893,0,0,1-2.01,1.719l1.184,1.125a10.8,10.8,0,0,0,2.462-2.312,9.93,9.93,0,0,0,1.184-1.891h0.623a11.705,11.705,0,0,1-1.2,1.969,14.826,14.826,0,0,1-2.2,2.234l1.247,1.172a11.522,11.522,0,0,0,2.15-2.266l0.343,1.641a4.287,4.287,0,0,0,1.075.141,1.894,1.894,0,0,0,1.916-.844q0.5-.766.5-5.547h-5.859a2.25,2.25,0,0,0,.172-0.359h6.076v-1.516h-10.1v1.516h2.135a6.772,6.772,0,0,1-.639.969,6.1,6.1,0,0,1-1.06,1.078l-0.078-.422q-0.654.219-1.371,0.438v-4.5h1.574V-103.4h-1.574v-3.25h-1.729v3.25h-1.511v1.766Zm12.168,4.3a11.394,11.394,0,0,1-.2,2.906,0.382,0.382,0,0,1-.42.281,7.817,7.817,0,0,1-1.356-.156,6.6,6.6,0,0,0,.374-0.562,12.008,12.008,0,0,0,1.247-2.469h0.358Zm-6.668-3.734H150.7v-5.516h-7.977v5.516Zm1.729-2h4.5v0.422h-4.5v-0.422Zm0-1.937h4.5v0.5h-4.5V-105Zm10.618,2.062h4.736v0.3h-6.372v1.516h14.411v-1.516h-6.372v-0.3h4.674v-3.2h-4.674v-0.625h-1.667v0.625h-4.736v3.2Zm1.667-1.828h3.069v0.453h-3.069v-0.453Zm7.743,0v0.453h-3.007v-0.453h3.007Zm-9.675,10.516H157.5q-0.5.109-1.122,0.219-1.23.234-2.82,0.406l0.686,1.484q1.62-.219,2.944-0.516a14.419,14.419,0,0,0,2.353-.672l-0.826-.922h3.958l-0.81.859q1.137,0.359,2.446.641,1.106,0.265,2.29.438l0.857-1.5q-1.122-.094-2.306-0.234-0.764-.094-1.5-0.2h2.7v-6.579H154.806v6.579Zm1.7-1.891h8.148v0.453H156.5v-0.453Zm0-1.609h8.148V-97.4H156.5v-0.359Zm0-1.641h8.148v0.391H156.5V-99.4Zm19.452-6.688H169.9v3.016h1.745v-1.641h10.485v1.641h1.73v-3.016h-5.983v-0.75h-1.916v0.75Zm-3.927,3.141h1.122a19.243,19.243,0,0,1-2.493.563L171.406-101a14.941,14.941,0,0,0,3.3-1.2l-0.966-.734h2.01v1.281q-3.037.75-6.107,1.219l0.747,1.438,1.075-.187v4.75h2.322a30.228,30.228,0,0,1-3.521.688l0.872,1.547a24.055,24.055,0,0,0,4.612-1.422l-1-.812h4.518l-1.028.813a21.921,21.921,0,0,0,2.29.813q1.044,0.328,2.15.563l0.919-1.625q-0.981-.125-2.041-0.312-0.639-.11-1.246-0.25h2.1v-6.391h-3.879q1.854-.514,3.583-1.125l-0.748-.984h0.3v-1.375h-9.645v1.375Zm5.485,0h2.835q-1.386.453-2.835,0.828v-0.828ZM173.2-96.208h7.494v0.391H173.2v-0.391Zm0-1.609h7.494v0.359H173.2v-0.359Zm0-1.641h7.494v0.391H173.2v-0.391Zm18.891-6.234h-5.983v2.422h1.807v-0.75h10.548v0.828h1.807v-2.5h-6.185v-1.078h-1.994v1.078Zm-4.861,4.359h2.695a13.893,13.893,0,0,1-.873,1.5q-0.919.016-1.869,0.016l0.374,1.8a78.833,78.833,0,0,0,9.223-.766q0.405,0.625.748,1.266l1.667-.984a14.079,14.079,0,0,0-1.978-2.829h1.869v-1.734H187.228v1.734Zm3.863,1.407a13.227,13.227,0,0,0,.826-1.407h4.051l-0.81.5q0.249,0.282.514,0.579-2.227.234-4.581,0.328h0Zm-4.222,4.656h5.282v1.063h-5.983v1.7h13.96v-1.7h-6.107v-1.062h5.421v-1.672h-5.421v-1.078h-1.87v1.078h-5.282v1.672Z"/>
  </g>
</svg>
