<svg id="群組_1" data-name="群組 1" xmlns="http://www.w3.org/2000/svg" width="257" height="55" viewBox="0 0 257 55">
  <metadata><?xpacket begin="﻿" id="W5M0MpCehiHzreSzNTczkc9d"?>
<x:xmpmeta xmlns:x="adobe:ns:meta/" x:xmptk="Adobe XMP Core 5.6-c142 79.160924, 2017/07/13-01:06:39        ">
   <rdf:RDF xmlns:rdf="http://www.w3.org/1999/02/22-rdf-syntax-ns#">
      <rdf:Description rdf:about=""/>
   </rdf:RDF>
</x:xmpmeta>





















<?xpacket end="w"?></metadata>
<defs>
    <style>
      .cls-1 {
        fill: #816f58;
        opacity: 0.9;
      }

      .cls-2 {
        fill: #fff;
        fill-rule: evenodd;
      }
    </style>
  </defs>
  <rect id="矩形_13_拷貝_3" data-name="矩形 13 拷貝 3" class="cls-1" width="257" height="55"/>
  <path id="形狀_6_拷貝_3" data-name="形狀 6 拷貝 3" class="cls-2" d="M63,5h2V51H63V5Z"/>
  <path id="形狀_8" data-name="形狀 8" class="cls-2" d="M18.315,19.326a4.165,4.165,0,1,0-4.3-4.163,4.236,4.236,0,0,0,4.3,4.163m0-5.551a1.388,1.388,0,1,1-1.432,1.388,1.415,1.415,0,0,1,1.432-1.388M49.7,29.041H22.91V24.672a4.236,4.236,0,0,0-4.3-4.163h-0.3a4.236,4.236,0,0,0-4.3,4.163v4.368h-1.73a4.234,4.234,0,0,0-4.3,4.163v8.628a4.236,4.236,0,0,0,4.3,4.163H49.7a4.236,4.236,0,0,0,4.3-4.163V33.2a4.234,4.234,0,0,0-4.3-4.163M16.883,24.672a1.414,1.414,0,0,1,1.432-1.388h0.3a1.414,1.414,0,0,1,1.432,1.388v4.368H16.883V24.672ZM51.129,41.832A1.414,1.414,0,0,1,49.7,43.219H12.289a1.414,1.414,0,0,1-1.432-1.388V33.2a1.412,1.412,0,0,1,1.432-1.388H49.7A1.412,1.412,0,0,1,51.129,33.2v8.628ZM28.34,20.684H40.957L38.569,23l2.025,1.962,5.822-5.642L45.4,18.336s-4.676-4.529-4.843-4.693L38.52,15.589c0.08,0.081,1.231,1.2,2.391,2.32H28.34v2.775Z"/>
  <path id="STEP" class="cls-2" d="M82.226,11.964a2.823,2.823,0,0,0-2.154-.86,2.091,2.091,0,0,0-.748,4.11,11.994,11.994,0,0,1,1.336.59,1.53,1.53,0,0,1,.977,1.37,1.434,1.434,0,0,1-1.615,1.28,2.389,2.389,0,0,1-1.885-.97l-0.658.6a3.135,3.135,0,0,0,2.533,1.21c1.566,0,2.583-.83,2.583-2.13a2.059,2.059,0,0,0-.867-1.72,6.4,6.4,0,0,0-1.915-.93,1.332,1.332,0,0,1-1.167-1.33,1.229,1.229,0,0,1,1.426-1.24,2.287,2.287,0,0,1,1.586.67Zm7.788,0.1v-0.8H84.63v0.8h2.244v7.07h0.9v-7.07h2.244Zm6.851,0.04v-0.84H92.578v7.871h4.378v-0.84h-3.48v-2.83h3.081v-0.84H93.475V12.1h3.391Zm3.69,3.05V12.1H102.2a1.45,1.45,0,0,1,1.506,1.52,1.463,1.463,0,0,1-1.506,1.53h-1.645Zm-0.9-3.89v7.871h0.9v-3.14h1.7a2.291,2.291,0,0,0,2.4-2.37,2.283,2.283,0,0,0-2.4-2.36h-2.6Z"/>
  <path id="_01" data-name="01" class="cls-2" d="M85.317,21.947c-5.245,0-8.131,4.544-8.131,12.791,0,8.185,2.886,12.7,8.1,12.7s8.1-4.513,8.1-12.7S90.5,21.947,85.317,21.947Zm-0.062,2.676c3.352,0,5.151,3.486,5.151,10.083,0,6.536-1.8,10.052-5.089,10.052-3.383,0-5.151-3.486-5.151-10.052C80.166,28.171,81.966,24.623,85.255,24.623Zm20.881,22.314V22.444H99.9v2.614h3.444V46.937h2.793Z"/>
  <path id="VIP" class="cls-2" d="M22.308,40.86h2.126L26.4,34.234H24.6l-0.675,2.9c-0.174.7-.307,1.386-0.49,2.1H23.392c-0.184-.714-0.307-1.4-0.491-2.1l-0.7-2.9h-1.86Zm7.783,0h1.758V34.234H30.091V40.86Zm6.292,0H38.14v-2.1h0.818c1.39,0,2.657-.7,2.657-2.324,0-1.672-1.226-2.2-2.657-2.2H36.383V40.86Zm1.758-3.486V35.621h0.736a0.815,0.815,0,0,1,1.022.816,0.876,0.876,0,0,1-1.022.938H38.14Z"/>
  <path id="前往日本指定_機場貴賓室" data-name="前往日本指定 機場貴賓室" class="cls-2" d="M124.082,10.042a5.093,5.093,0,0,1,.686,1.125h-3.615v1.7h13.882v-1.7h-3.474a10.644,10.644,0,0,0,.794-1.375L130.3,9.229a14.608,14.608,0,0,1-.811,1.938h-3.661l0.982-.437a7.923,7.923,0,0,0-1.044-1.5ZM121.7,13.495V23.682h1.808v-3.25h2.742v0.734q0,0.812-.359.813a5.2,5.2,0,0,1-1.308-.187l0.358,1.828a8.229,8.229,0,0,0,.95.063,1.878,1.878,0,0,0,2.182-2.062V13.495H121.7Zm1.808,4.312h2.742v1h-2.742v-1Zm0-2.641h2.742v1.016h-2.742V15.167Zm5.873,5.766h1.808V13.979h-1.808v6.953Zm3.35,0a4.89,4.89,0,0,1-.047.8,0.2,0.2,0,0,1-.187.188,7.529,7.529,0,0,1-1.869-.234l0.3,1.813a8.43,8.43,0,0,0,1.807.188,1.717,1.717,0,0,0,1.465-.547,3.128,3.128,0,0,0,.358-1.781V13.292h-1.823v7.641Zm6.3-9.937a12.172,12.172,0,0,1-1.807,1.547l1.184,1.578a11.958,11.958,0,0,0,2.072-1.812,10.572,10.572,0,0,0,1.48-2.062l-1.605-.953a9.365,9.365,0,0,1-1.324,1.7h0Zm-0.016,3.938a14.82,14.82,0,0,1-1.978,1.937l1.2,1.563a7.248,7.248,0,0,0,.561-0.469V23.62h1.792V16.073a12.826,12.826,0,0,0,1.511-2.328l-1.636-.937a11.523,11.523,0,0,1-1.449,2.125h0Zm5.376-4.953a10.136,10.136,0,0,1,1.4,1.7h-3.9v1.734h3.63v2.828h-3.3v1.734h3.3v3.516h-4.316v1.734h10.361V21.495H147.46V17.979h3.163V16.245H147.46V13.417h3.724V11.682h-4.55l1.06-.625a8.832,8.832,0,0,0-1.667-2.062Zm10.68,0V23.62H157V22.87h7.213v0.75h1.932V9.979H155.071ZM157,17.229h7.213v3.766H157V17.229Zm0-5.375h7.213v3.5H157v-3.5Zm13.157,1.375h4.8a17.135,17.135,0,0,1-2.041,3.109,14.73,14.73,0,0,1-3.209,3.078l0.95,1.641a12.415,12.415,0,0,0,2-1.656v1.531h3.225V23.62h1.869V20.932h3.179V19.26a13.831,13.831,0,0,0,2.181,1.8L184.12,19.1a11.926,11.926,0,0,1-3.3-2.766,17.117,17.117,0,0,1-2.1-3.109h4.955V11.417h-5.921V9.229h-1.869v2.188H170.16v1.813Zm4.128,4.438a22.149,22.149,0,0,0,1.59-2.484V19.1h-2.929q0.623-.625,1.339-1.437h0Zm3.459-2.578a18.716,18.716,0,0,0,1.745,2.578q0.607,0.75,1.278,1.438h-3.023V15.088Zm8.234-1.672H187.8v2.906q-0.934.234-1.994,0.484l0.623,1.859q0.685-.187,1.371-0.406v2.547a2.866,2.866,0,0,1-.093.844,0.341,0.341,0,0,1-.359.2,5.623,5.623,0,0,1-1.371-.172l0.327,1.875a6.5,6.5,0,0,0,1.309.125,1.93,1.93,0,0,0,1.605-.578,3.226,3.226,0,0,0,.389-1.875V17.635q0.856-.344,1.667-0.7l-0.3-1.578q-0.654.234-1.371,0.453V13.417h1.667V11.682h-1.667V9.229H187.8v2.453h-1.823v1.734Zm5.858-.312a1.626,1.626,0,0,0,1.745,1.813,7.9,7.9,0,0,0,2.369.188q1.915,0,2.8-.094a1.482,1.482,0,0,0,1.091-.609,5.285,5.285,0,0,0,.545-1.594l-1.823-.828A1.482,1.482,0,0,1,198.1,13.1a1.713,1.713,0,0,1-.67.156q-0.422.032-1.48,0.031a7.063,7.063,0,0,1-1.714-.172,0.585,0.585,0,0,1-.577-0.609A61.579,61.579,0,0,0,200,11.057L198.9,9.495q-2.447.781-5.235,1.375V9.229h-1.823V13.1Zm-0.171,2.75v7.828h1.792V23.167h4.487v0.516h1.823V15.854h-8.1Zm1.792,4.453h4.487v1.109H193.46V20.307Zm0-2.687h4.487v0.922H193.46V17.62ZM208.5,10.432h-5.92v2.984h1.791V12.182h10.112v1.234h1.792V10.432h-5.859V9.166H208.5v1.266Zm-4.129,4.984h4.316v5.891a3.762,3.762,0,0,1-1.7-.828,5.833,5.833,0,0,1-1-1.141,15.159,15.159,0,0,0,.638-2.8l-1.76-.359a11.78,11.78,0,0,1-.919,3.375,11.893,11.893,0,0,1-1.823,2.813l1.371,1.313a12.832,12.832,0,0,0,1.714-2.516,5.016,5.016,0,0,0,3.458,2.031,27.962,27.962,0,0,0,4.721.3h2.587l0.56-2.078a21.5,21.5,0,0,1-3.147.2q-1.667,0-2.9-.078V19.057h4.176v-1.7H210.5V15.417h3.989V13.682H204.373v1.734ZM121.028,37.557h1.309v0.172a20.762,20.762,0,0,1-.608,2.313,16.611,16.611,0,0,1-1,2.688l0.982,1.25a17.96,17.96,0,0,0,.623-1.687v5.391h1.62V40.588q0.359,0.547.748,1.2l0.919-1.3,0.063,0.375a9.747,9.747,0,0,0,3.054-.531c0.02,0.115.041,0.245,0.062,0.391l1.106-.328q0.093,0.516.2,1.016H125.5v1.516h1.09a9.2,9.2,0,0,1-.358,2.094,5.244,5.244,0,0,1-.9,1.7l1.481,0.953a6.167,6.167,0,0,0,1-2.047c0.052-.177.1-0.375,0.156-0.594q0.654,0.406,1.293.875l0.919-1.312a19.9,19.9,0,0,0-1.979-1.078c0.01-.187.021-0.385,0.031-0.594h2.26a12.953,12.953,0,0,0,.763,2.2,8.335,8.335,0,0,1-2.119,1.109l0.81,1.438a10.311,10.311,0,0,0,2.119-1.141c0.042,0.063.083,0.12,0.125,0.172a1.966,1.966,0,0,0,1.418.906,1.388,1.388,0,0,0,.888-0.3,3.1,3.1,0,0,0,.981-1.766l-1.542-.625a4.3,4.3,0,0,1-.14.8,0.3,0.3,0,0,1-.125.188,0.721,0.721,0,0,1-.436-0.391,8.916,8.916,0,0,0,1.2-1.734l-1.449-.687a6.523,6.523,0,0,1-.545.813,7.631,7.631,0,0,1-.358-0.984H135.3V41.417h-1.262l0.452-.484a6.728,6.728,0,0,0-.966-0.687,2.91,2.91,0,0,0,.623-0.2q0.047,0.219.078,0.438l1.246-.359a11.74,11.74,0,0,0-.748-2.625l-0.638.188q0.466-.906.95-2l-1.371-.625q-0.312.875-.732,1.8a3.587,3.587,0,0,0-.281-0.25q0.561-1.125,1.215-2.75l-1.371-.625a25.618,25.618,0,0,1-.981,2.641c-0.062-.041-0.13-0.083-0.2-0.125l-0.2.391q-0.063-1.344-.063-2.969l-1.667.125q0.016,1.375.078,2.609l-1.215-.547q-0.249.609-.576,1.266c-0.084-.062-0.177-0.125-0.281-0.187q0.608-1.093,1.309-2.578l-1.371-.625a22.21,22.21,0,0,1-1.106,2.531c-0.084-.041-0.172-0.088-0.265-0.141l-0.888,1.109A10.854,10.854,0,0,1,127,37.948q-0.375.7-.857,1.453-0.327.016-.7,0.016l0.109,0.641a21.111,21.111,0,0,0-1.59-1.641V37.557h0.982V35.979h-0.982v-2.75h-1.62v2.75h-1.309v1.578ZM131.7,41.417c-0.011-.073-0.026-0.151-0.047-0.234a29.194,29.194,0,0,1-.483-3.984,13.63,13.63,0,0,1,1.2.859q-0.234.516-.514,1.031c-0.146.011-.291,0.016-0.437,0.016l0.25,1.375a10.086,10.086,0,0,0,1.121-.094l-0.56.672a4.613,4.613,0,0,1,.545.359H131.7Zm-2.384-3.562-0.826.234q0.468-.828.982-1.828,0.078,1.563.249,2.906a12.009,12.009,0,0,0-.405-1.312h0Zm-1.48,1.344c0.145-.229.291-0.479,0.436-0.75,0.062,0.188.125,0.386,0.187,0.594a5.4,5.4,0,0,1-.623.156h0Zm5.624-.3q0.125-.25.281-0.516c0.041,0.136.083,0.281,0.124,0.438a3.914,3.914,0,0,1-.405.078h0Zm3.763-.531h1.511v4.969q-0.827.219-1.7,0.406l0.639,1.875a30.933,30.933,0,0,0,4.487-1.578l-0.063-.328,0.748,0.656a7.1,7.1,0,0,0,1.636-1.7h0.421a9.7,9.7,0,0,1-1,1.359,11.893,11.893,0,0,1-2.01,1.719l1.184,1.125a10.8,10.8,0,0,0,2.462-2.312,9.93,9.93,0,0,0,1.184-1.891h0.623a11.705,11.705,0,0,1-1.2,1.969,14.826,14.826,0,0,1-2.2,2.234l1.247,1.172a11.522,11.522,0,0,0,2.15-2.266l0.343,1.641a4.287,4.287,0,0,0,1.075.141,1.894,1.894,0,0,0,1.916-.844q0.5-.766.5-5.547h-5.859a2.25,2.25,0,0,0,.172-0.359h6.076V39.292h-10.1v1.516h2.135a6.772,6.772,0,0,1-.639.969,6.1,6.1,0,0,1-1.06,1.078l-0.078-.422q-0.654.219-1.371,0.438v-4.5h1.574V36.6h-1.574v-3.25h-1.729V36.6h-1.511V38.37Zm12.168,4.3a11.394,11.394,0,0,1-.2,2.906,0.382,0.382,0,0,1-.42.281,7.817,7.817,0,0,1-1.356-.156,6.6,6.6,0,0,0,.374-0.562,12.008,12.008,0,0,0,1.247-2.469h0.358Zm-6.668-3.734H150.7V33.417h-7.977v5.516Zm1.729-2h4.5v0.422h-4.5V36.932Zm0-1.937h4.5v0.5h-4.5v-0.5Zm10.618,2.063h4.736v0.3h-6.372V38.87h14.411V37.354h-6.372v-0.3h4.674v-3.2h-4.674V33.229h-1.667v0.625h-4.736v3.2Zm1.667-1.828h3.069v0.453h-3.069V35.229Zm7.743,0v0.453h-3.007V35.229h3.007Zm-9.675,10.516H157.5q-0.5.109-1.122,0.219-1.23.234-2.82,0.406l0.686,1.484q1.62-.219,2.944-0.516a14.419,14.419,0,0,0,2.353-.672l-0.826-.922h3.958l-0.81.859q1.137,0.359,2.446.641,1.106,0.265,2.29.438l0.857-1.5q-1.122-.094-2.306-0.234-0.764-.094-1.5-0.2h2.7V39.167H154.806v6.578Zm1.7-1.891h8.148v0.453H156.5V43.854Zm0-1.609h8.148V42.6H156.5V42.245Zm0-1.641h8.148v0.391H156.5V40.6Zm19.452-6.687H169.9v3.016h1.745V35.292h10.485v1.641h1.73V33.917h-5.983v-0.75h-1.916v0.75Zm-3.927,3.141h1.122a19.147,19.147,0,0,1-2.493.563l0.748,1.375a14.967,14.967,0,0,0,3.3-1.2l-0.966-.734h2.01v1.281q-3.037.75-6.107,1.219l0.747,1.438,1.075-.187v4.75h2.322a30.228,30.228,0,0,1-3.521.688l0.872,1.547a24.055,24.055,0,0,0,4.612-1.422l-1-.812h4.518l-1.028.813a21.921,21.921,0,0,0,2.29.813q1.044,0.328,2.15.563l0.919-1.625q-0.981-.125-2.041-0.312-0.639-.11-1.246-0.25h2.1V39.167h-3.879q1.854-.516,3.583-1.125l-0.748-.984h0.3V35.682h-9.645v1.375Zm5.485,0h2.835q-1.386.453-2.835,0.828V37.057ZM173.2,43.792h7.494v0.391H173.2V43.792Zm0-1.609h7.494v0.359H173.2V42.182Zm0-1.641h7.494v0.391H173.2V40.542Zm18.891-6.234h-5.983v2.422h1.807v-0.75h10.548v0.828h1.807v-2.5h-6.185V33.229h-1.994v1.078Zm-4.861,4.359h2.695a13.839,13.839,0,0,1-.873,1.5q-0.919.016-1.869,0.016l0.374,1.8a78.833,78.833,0,0,0,9.223-.766q0.405,0.625.748,1.266l1.667-.984a14.076,14.076,0,0,0-1.978-2.828h1.869V36.932H187.228v1.734Zm3.863,1.406a13.25,13.25,0,0,0,.826-1.406h4.051l-0.81.5q0.249,0.281.514,0.578-2.227.234-4.581,0.328h0Zm-4.222,4.656h5.282v1.063h-5.983v1.7h13.96v-1.7h-6.107V44.729h5.421V43.057h-5.421V41.979h-1.87v1.078h-5.282v1.672Z"/>
</svg>
