<?xml version="1.0" encoding="utf-8"?>
<!-- Generator: Adobe Illustrator 23.0.0, SVG Export Plug-In . SVG Version: 6.00 Build 0)  -->
<svg version="1.1" id="Logos" xmlns="http://www.w3.org/2000/svg" xmlns:xlink="http://www.w3.org/1999/xlink" x="0px" y="0px"
	 viewBox="0 0 400.2 56.7" style="enable-background:new 0 0 400.2 56.7;" xml:space="preserve">
<style type="text/css">
	.st0{fill:none;}
	.st1{fill:#ffffff;}
</style>
<g>
	<path class="st0" d="M17.5,61.6c-1.9,0-3.2-1.5-3.2-3.2v-64c0-1.9,1.5-3.2,3.2-3.2h365.2c1.9,0,3.2,1.5,3.2,3.2v63.8
		c0,1.9-1.5,3.2-3.2,3.2H17.5V61.6z"/>
	<g>
		<g>
			<g>
				<g>
					<g>
						<path class="st1" d="M208.5,9.4c-1.2,2.1-2.4,4-3.4,5.3c0.4,0.4,0.7,0.7,1.1,1.1c0.6-1.2,1.2-2.5,1.9-3.6l3.1,1.4v-3h2.7
							c0.2-0.9,0.5-1.9,0.7-2.7l3.8,0.9c-0.1,0.6-0.4,1.2-0.6,1.9h3.7v3.2l0.9-1.1c0.2,0.1,0.4,0.4,0.6,0.5c1.1-1.7,2-3.6,2.9-5.3
							l3.5,1.5c-1.2,2.4-2.5,4.3-3.5,6c0.2,0.2,0.6,0.5,1,0.7c1-1.5,1.7-2.9,2.6-4.2l3.6,1.6c-1.5,2.2-2.9,4.3-4.1,6.2l2.1-1
							c1,2.2,1.9,4.6,2.6,7.2l-3,1.2c-0.1-0.6-0.4-1.2-0.5-1.9c-2.6,0.5-5.3,0.9-8.4,1.2v0.4h-10.4v-1.1l-2.5,1
							c-0.1-0.4-0.1-0.7-0.1-1c-2.5,0.7-5.2,1.4-8.1,1.9l-0.7-3.8c0.6-0.1,1.1-0.1,1.7-0.2c1-1.4,1.9-2.6,2.6-4
							c-1.4-1.4-2.7-2.7-4.2-4.2l2.5-3c0.1,0.1,0.1,0.1,0.2,0.2c1-1.5,1.7-3,2.5-4.5L208.5,9.4z M214,28.9v-1.6h4.3v1.6h13.8v3.5
							h-10.1c1,0.6,2.1,1.1,3.4,1.6c2.1,0.9,4.7,1.7,7.7,2.2l-2.4,4.3c-3-1-5.8-2.2-8.4-3.8c-1.5-0.9-2.7-1.9-4.1-3v7.3h-4.3v-6.7
							c-1,0.9-2.1,1.5-3.2,2.2c-3.5,1.7-6.3,3.1-8.8,3.7l-2-3.5c2.4-0.6,5-1.5,7.6-2.7c1.4-0.6,2.5-1.2,3.5-1.9H201v-3.5h13V28.9z
							 M207.4,20.7c-0.5,0.7-0.9,1.5-1.4,2c0.6-0.1,1.2-0.2,1.9-0.4C207.8,21.7,207.5,21.2,207.4,20.7z M211.3,14.5
							c-1.1,1.9-2.2,3.7-3.2,5.2l1.9-0.9c0.5,1.6,1,3.4,1.5,5.1v-9.4H211.3z M218,17.1v-2.9h-3v2.9H218z M218,23.2v-2.6h-3v2.6H218z
							 M222.2,22.4c0.9-1,1.6-2,2.4-3.1c-1-0.7-1.9-1.5-2.9-2.4v5.3C221.9,22.6,222.1,22.6,222.2,22.4z M228.5,20.2
							c-0.5,0.6-1,1.4-1.4,1.9c0.7,0,1.4-0.1,2.1-0.1C228.9,21.3,228.8,20.7,228.5,20.2z"/>
						<path class="st1" d="M265,9.3v4.2h-11.8c0,3.5,0,5.7-0.1,6.7h13.3v4.2h-13c1,2.1,2.1,4.1,3.6,5.7c2.5,3,6,5.5,10.6,7.2
							l-2.6,4.1c-4-1.9-7.1-4-9.2-6.1c-1.7-1.6-3.1-3.6-4.3-6c-0.6,1.6-1.5,3-2.6,4.2c-2.9,3.1-6.7,5.6-11.5,7.2l-1.9-4
							c4.5-1.6,7.8-3.7,10.2-6.5c1.4-1.6,2.2-3.6,2.7-5.8h-12v-4.2h12.5c0-0.2,0-0.5,0-0.9c0.1-0.1,0.1-2.1,0.1-5.8h-11.1V9.4H265
							V9.3z"/>
						<path class="st1" d="M279.3,9.1c-0.7,2.4-1.5,4.7-2.5,7v24.8h-4.1V24.3c-0.6,1-1.2,2-1.9,2.7l-2.1-4.1c3-4.7,5.2-9.7,6.6-14.9
							L279.3,9.1z M302.3,13.7v3.8h-23.3v-3.8H302.3z M300.6,41.1h-4.2v-1.1h-11.8v1.1h-4.1V28.8h20.1V41.1z M299.9,18.8v3.7h-19.2
							v-3.7H299.9z M299.9,23.7v3.7h-19.2v-3.7H299.9z M299.7,8.7v3.8h-17.6V8.7H299.7z M296.3,36.1v-3.5h-11.8v3.5H296.3z"/>
						<path class="st1" d="M334.6,9.3V35c0,3.7-1.6,5.6-4.8,5.6c-0.9,0-2-0.1-3.1-0.1l-1-4.7c1.2,0.4,2.4,0.6,3.5,0.6
							c0.9,0,1.2-1,1.2-2.9v-3.4h-7.5v10.1h-4.3V30.1h-8.1c-0.1,1.2-0.4,2.5-0.6,3.7c-0.5,2.4-1.5,4.7-2.7,7.2l-3.8-2.4
							c1.4-3.1,2.2-5.7,2.7-7.9c0.5-2.7,0.7-5.5,0.7-8.3V9.3h2H334.6z M318.4,25.9v-4.3h-7.6v3c0,0.5,0,0.9,0,1.4H318.4z
							 M318.4,17.5v-4h-7.6v4H318.4z M322.8,17.5h7.5v-4h-7.5V17.5z M322.8,25.9h7.5v-4.3h-7.5V25.9z"/>
						<path class="st1" d="M353.2,7.9V12H367v4h-13.8v3.8h16.4v4h-16.1v1.5c4.6,2.9,8.4,5.6,11.8,8.3l-2.7,3.7
							c-3-2.7-6.1-5.2-9.1-7.3v10.9h-4.2v-17h-12v-4h11.9V8h4.1V7.9z"/>
					</g>
				</g>
			</g>
			<g>
				<polygon class="st1" points="159.1,45.2 62.5,45.2 70.2,52.9 				"/>
				<path class="st1" d="M71.4,14v1.1c-1.7-1.1-3.4-1.9-5.6-1.9c-6.8,0-11.9,6.2-11.9,13.8S59,40.8,65.8,40.8c2.2,0,3.8-0.6,5.6-1.9
					v1.1h6V14H71.4z M65.8,34.6c-3.4,0-5.8-3.2-5.8-7.5c0-4.1,2.5-7.5,5.8-7.5s5.7,3.2,5.7,7.5C71.6,31.3,69.2,34.6,65.8,34.6z"/>
				<path class="st1" d="M119.1,14v15.4c0,2.9-2,5.3-4.8,5.3c-2.9,0-4.8-2.5-4.8-5.3V14h-6v15.4c0,6.3,4.3,11.4,10.7,11.4
					c3,0,5.1-1.6,5.1-1.6v1h6V14H119.1z"/>
				<path class="st1" d="M174.6,40.3V24.9c0-2.9,2-5.3,4.8-5.3c2.9,0,4.8,2.5,4.8,5.3v15.4h6V24.9c0-6.3-4.3-11.4-10.7-11.4
					c-3,0-5.1,1.6-5.1,1.6v-1h-6v26.2H174.6z"/>
				<path class="st1" d="M36.8,40.3V30.1h4.3l7.6,10.2h7.8L47.3,28c2.9-2.1,4.7-5.5,4.7-9.2c0-6.2-5.1-11.3-11.3-11.3H30.4v32.8
					H36.8z M36.8,13.7h4.1c2.9,0,5.1,2.2,5.1,5.1c0,2.9-2.2,5.1-5.1,5.1h-4.1V13.7z"/>
				<path class="st1" d="M141.1,34.1c-0.5,0.4-1.2,0.6-2,0.6c-1,0-2.9-0.7-2.9-3.2V20.3h5.1v-6.2h-5.1V7.5h-5.8v6.6h-3.1v6.2h3.1
					v11.3c0,5.8,4.5,9.3,8.8,9.3c1.6,0,4-0.5,5.8-1.6L141.1,34.1z"/>
				<polygon class="st1" points="92.2,26.3 102.5,14 94,14 87,23.2 87,5.3 80.9,5.3 80.9,40.3 87,40.3 87,29.5 95.8,40.3
					104.1,40.3 				"/>
				<path class="st1" d="M154.9,13.4c-6.8,0-11.8,6.1-11.8,13.8c0,8.1,6.2,13.8,12.4,13.8c3.1,0,7.2-1.1,10.6-5.8l-5.2-3
					c-4.1,6-10.8,3-11.7-3h17.1C167.7,19.6,161.6,13.4,154.9,13.4z M160.1,23.8h-10.7C150.7,17.6,158.9,17.2,160.1,23.8z"/>
			</g>
		</g>
		<rect x="30.6" y="7.5" class="st0" width="339" height="37.6"/>
	</g>
</g>
</svg>
